<?xml version="1.0" encoding="utf-8"?>
<!-- Generator: Adobe Illustrator 22.0.1, SVG Export Plug-In . SVG Version: 6.00 Build 0)  -->
<svg version="1.1" id="圖層_1" xmlns="http://www.w3.org/2000/svg" xmlns:xlink="http://www.w3.org/1999/xlink" x="0px" y="0px"
	 viewBox="0 0 1030 200" style="enable-background:new 0 0 1030 200;" xml:space="preserve">
<style type="text/css">
	.st0{enable-background:new    ;}
	.st1{fill:#CCCCCC;}
</style>
<g class="st0">
	<path class="st1" d="M104.7,191.2c-14.9,0-28.1-2.3-39.6-7c-11.5-4.6-21.2-11-29.2-19.2s-13.9-17.7-18-28.7
		c-4.1-11-6.1-22.8-6.1-35.4c0-12.5,2.1-24.2,6.4-35.2c4.2-11,10.4-20.5,18.4-28.7c8-8.2,17.8-14.6,29.3-19.3
		c11.5-4.7,24.5-7.1,38.9-7.1c6.7,0,13.5,0.6,20.4,1.9c6.9,1.3,14.2,3.4,21.8,6.2L138.3,41c-7-2.1-13-3.5-18-4.3
		c-5-0.8-10.2-1.2-15.6-1.2c-9.6,0-17.9,1.9-25,5.6c-7,3.8-12.9,8.7-17.5,14.8c-4.6,6.1-8.1,13-10.4,20.9
		c-2.3,7.8-3.5,15.9-3.5,24.2c0,8.3,1.2,16.4,3.5,24.2c2.3,7.8,5.8,14.8,10.4,21c4.6,6.2,10.5,11.1,17.5,14.8c7,3.7,15.4,5.5,25,5.5
		c10.7,0,21.8-2.7,33.4-8.2l8.9,21.8c-7.2,3.7-14.4,6.4-21.5,8.3C118.3,190.3,111.4,191.2,104.7,191.2z"/>
	<path class="st1" d="M225.1,191.7c-13.9,0-26.2-2.3-37-7c-10.7-4.6-19.8-11-27.2-19.1c-7.4-8.1-13.1-17.6-16.9-28.7s-5.8-23-5.8-36
		c0-12.5,2-24.2,5.9-35.3c3.9-11,9.6-20.7,17-28.9c7.4-8.2,16.5-14.7,27.2-19.4c10.7-4.7,23-7.1,36.7-7.1c15.7,0,29,2.7,40,8.2
		c11,5.4,19.9,12.5,26.9,21.2c7,8.7,12,18.5,15.1,29.3c3.1,10.8,4.7,21.5,4.7,32c0,11.8-1.9,23.2-5.8,34.1
		c-3.8,10.9-9.4,20.5-16.7,28.9c-7.3,8.4-16.3,15.1-27.1,20.2S239.1,191.7,225.1,191.7z M225.1,35c-8.3,0-15.6,1.8-21.8,5.3
		c-6.2,3.5-11.5,8.3-15.7,14.4c-4.2,6.1-7.4,13.1-9.6,21.1c-2.2,8-3.2,16.4-3.2,25.2c0,8.3,1.1,16.4,3.2,24.4s5.4,15,9.6,21.1
		c4.2,6.2,9.5,11.1,15.7,14.9c6.2,3.8,13.5,5.6,21.8,5.6c6.6,0,12.9-1.5,19-4.4c6.1-3,11.4-7.2,16.1-12.8
		c4.6-5.6,8.4-12.5,11.2-20.6c2.8-8.2,4.2-17.5,4.2-28.1c0-9.4-1.2-18.2-3.5-26.3c-2.3-8.1-5.6-15-10-20.9
		c-4.3-5.8-9.6-10.4-15.8-13.8C240,36.7,233,35,225.1,35z"/>
	<path class="st1" d="M355.7,66.2l-3.8-8.6l0.5,8.2v122.6h-29.3V13.9h33.1l73.7,117.4l3.4,9.6l-0.5-9.6V13.9h30.5v174.5h-30.5
		L355.7,66.2z"/>
	<path class="st1" d="M471.6,38.6V13.9h125.3v24.7h-45.6v149.8h-34.1V38.6H471.6z"/>
	<path class="st1" d="M635.5,150.2l-12.7,38.2H589l62.6-174.5h33.6l62.6,174.5h-35.5L669.1,58.5l-1.9-8.9l-2.2,9.4l-20.4,62.2
		l-2.9,4.8l3.6-0.5h18.2c3.5,0,6.6,0.8,9.1,2.4c2.6,1.6,4.8,3.6,6.7,6c1.9,2.4,3.6,5.1,4.9,8c1.4,3,2.4,5.7,3.2,8.3H635.5z"/>
</g>
<g class="st0">
	<path class="st1" d="M842.6,191.2c-14.9,0-28.1-2.3-39.6-7c-11.5-4.6-21.2-11-29.2-19.2s-13.9-17.7-18-28.7
		c-4.1-11-6.1-22.8-6.1-35.4c0-12.5,2.1-24.2,6.4-35.2c4.2-11,10.4-20.5,18.4-28.7c8-8.2,17.8-14.6,29.3-19.3
		c11.5-4.7,24.5-7.1,38.9-7.1c6.7,0,13.5,0.6,20.4,1.9c6.9,1.3,14.2,3.4,21.8,6.2L876.2,41c-7-2.1-13-3.5-18-4.3
		c-5-0.8-10.2-1.2-15.6-1.2c-9.6,0-17.9,1.9-25,5.6c-7,3.8-12.9,8.7-17.5,14.8c-4.6,6.1-8.1,13-10.4,20.9
		c-2.3,7.8-3.5,15.9-3.5,24.2c0,8.3,1.2,16.4,3.5,24.2c2.3,7.8,5.8,14.8,10.4,21c4.6,6.2,10.5,11.1,17.5,14.8c7,3.7,15.4,5.5,25,5.5
		c10.7,0,21.8-2.7,33.4-8.2l8.9,21.8c-7.2,3.7-14.4,6.4-21.5,8.3C856.3,190.3,849.4,191.2,842.6,191.2z"/>
</g>
<g class="st0">
	<path class="st1" d="M893.5,38.6V13.9h125.3v24.7h-45.6v149.8h-34.1V38.6H893.5z"/>
</g>
</svg>
