<?xml version="1.0" encoding="utf-8"?>
<!-- Generator: Adobe Illustrator 22.0.1, SVG Export Plug-In . SVG Version: 6.00 Build 0)  -->
<svg version="1.1" id="圖層_1" xmlns="http://www.w3.org/2000/svg" xmlns:xlink="http://www.w3.org/1999/xlink" x="0px" y="0px"
	 viewBox="0 0 840 200" style="enable-background:new 0 0 840 200;" xml:space="preserve">
<style type="text/css">
	.st0{enable-background:new    ;}
	.st1{fill:#CCCCCC;}
</style>
<g class="st0">
	<path class="st1" d="M56.9,150.2l-12.7,38.2H10.3L73,13.9h33.6l62.6,174.5h-35.5L90.5,58.5l-1.9-8.9L86.4,59L66,121.2l-2.9,4.8
		l3.6-0.5H85c3.5,0,6.6,0.8,9.1,2.4c2.6,1.6,4.8,3.6,6.7,6c1.9,2.4,3.6,5.1,4.9,8c1.4,3,2.4,5.7,3.2,8.3H56.9z"/>
	<path class="st1" d="M262.8,166.8c8.6,0,15.7-2.4,21.2-7.2s8.3-11.7,8.3-20.6c0-4.8-1-9.1-3.1-12.8c-2.1-3.8-5-7-8.6-9.6
		c-3.7-2.6-8-4.7-13.1-6.1s-10.5-2.2-16.4-2.2h-21.6v80.2h-33.6V16.5c6.4-1.1,12.1-2,17-2.8c5-0.7,9.5-1.3,13.7-1.8
		c4.2-0.5,8.2-0.8,12.1-1c3.9-0.2,8-0.2,12.4-0.2c10.7,0,20.2,1.2,28.6,3.5c8.3,2.3,15.2,5.6,20.8,10s9.7,9.5,12.6,15.6
		c2.9,6.1,4.3,12.8,4.3,20.2c0,5.9-1.8,11.8-5.5,17.6c-3.7,5.8-8.5,10.6-14.4,14.3l-7,3.4l6.7,1.7c4.3,1.6,8.4,3.9,12.1,6.8
		c3.8,3,7,6.4,9.7,10.2c2.7,3.8,4.8,7.9,6.4,12.2c1.5,4.3,2.3,8.6,2.3,13c0,6.2-1.4,12.4-4.2,18.6c-2.8,6.2-6.8,11.7-12.1,16.6
		c-5.3,4.9-11.7,8.9-19.2,12c-7.5,3.1-16,4.7-25.4,4.7c-2.2,0-4.3,0-6.1-0.1c-1.8-0.1-3.8-0.3-5.9-0.6c-2.1-0.3-4.4-0.8-6.8-1.3
		c-2.5-0.6-5.5-1.2-9-2c1-2.1,2.2-4.3,3.6-6.7c1.4-2.4,3.1-4.6,5-6.6c1.9-2,4.2-3.6,6.7-4.9C256.7,167.4,259.6,166.8,262.8,166.8z
		 M251,85.6c4.2,0,8.2-0.6,12-1.8c3.8-1.2,7.2-2.9,10.1-5.2c2.9-2.2,5.2-4.9,7-8c1.8-3.1,2.6-6.6,2.6-10.4c0-2.9-0.6-5.8-1.8-8.8
		c-1.2-3-3-5.6-5.5-8c-2.5-2.4-5.7-4.4-9.7-6c-4-1.6-8.9-2.4-14.6-2.4c-4.3,0-7.9,0.1-10.8,0.4c-2.9,0.2-6.5,0.7-10.8,1.3v49H251z"
		/>
	<path class="st1" d="M436.1,191.7c-13.9,0-26.2-2.3-37-7c-10.7-4.6-19.8-11-27.2-19.1c-7.4-8.1-13.1-17.6-16.9-28.7s-5.8-23-5.8-36
		c0-12.5,2-24.2,5.9-35.3c3.9-11,9.6-20.7,17-28.9c7.4-8.2,16.5-14.7,27.2-19.4c10.7-4.7,23-7.1,36.7-7.1c15.7,0,29,2.7,40,8.2
		c11,5.4,19.9,12.5,26.9,21.2c7,8.7,12,18.5,15.1,29.3c3.1,10.8,4.7,21.5,4.7,32c0,11.8-1.9,23.2-5.8,34.1
		c-3.8,10.9-9.4,20.5-16.7,28.9c-7.3,8.4-16.3,15.1-27.1,20.2C462.4,189.2,450,191.7,436.1,191.7z M436.1,35
		c-8.3,0-15.6,1.8-21.8,5.3c-6.2,3.5-11.5,8.3-15.7,14.4c-4.2,6.1-7.4,13.1-9.6,21.1c-2.2,8-3.2,16.4-3.2,25.2
		c0,8.3,1.1,16.4,3.2,24.4s5.4,15,9.6,21.1c4.2,6.2,9.5,11.1,15.7,14.9c6.2,3.8,13.5,5.6,21.8,5.6c6.6,0,12.9-1.5,19-4.4
		c6.1-3,11.4-7.2,16.1-12.8c4.6-5.6,8.4-12.5,11.2-20.6c2.8-8.2,4.2-17.5,4.2-28.1c0-9.4-1.2-18.2-3.5-26.3c-2.3-8.1-5.6-15-10-20.9
		c-4.3-5.8-9.6-10.4-15.8-13.8C451,36.7,443.9,35,436.1,35z"/>
	<path class="st1" d="M618,191.7c-10.7,0-20.4-1.5-29-4.6c-8.6-3-16-7.5-22-13.4c-6-5.9-10.6-13.2-13.9-22
		c-3.3-8.7-4.9-18.8-4.9-30.1V13.9h33.6v111.4c0,6.6,0.9,12.4,2.8,17.5c1.8,5.1,4.4,9.5,7.6,13.1c3.2,3.6,7,6.4,11.4,8.3
		c4.4,1.9,9.2,2.9,14.3,2.9c5.1,0,9.9-1,14.3-2.9c4.4-1.9,8.2-4.7,11.4-8.3c3.2-3.6,5.7-8,7.6-13.1c1.8-5.1,2.8-11,2.8-17.5V13.9
		h33.6v107.8c0,10.6-1.6,20.2-4.8,28.8c-3.2,8.6-7.8,16-13.8,22.2c-6,6.2-13.3,10.9-22,14.2C638.4,190.1,628.7,191.7,618,191.7z"/>
	<path class="st1" d="M703.9,38.6V13.9h125.3v24.7h-45.6v149.8h-34.1V38.6H703.9z"/>
</g>
</svg>
