<?xml version="1.0" encoding="utf-8"?>
<!-- Generator: Adobe Illustrator 22.0.1, SVG Export Plug-In . SVG Version: 6.00 Build 0)  -->
<svg version="1.1" id="圖層_1" xmlns="http://www.w3.org/2000/svg" xmlns:xlink="http://www.w3.org/1999/xlink" x="0px" y="0px"
	 viewBox="0 0 918 200" style="enable-background:new 0 0 918 200;" xml:space="preserve">
<style type="text/css">
	.st0{enable-background:new    ;}
	.st1{fill:#CCCCCC;}
</style>
<g class="st0">
	<path class="st1" d="M147.5,16.3l30.7,125.5l2.4,13.4l1.9-13l32.4-128.4h32.6l-49.2,174.5h-33.8L130.4,60l-2.2-9.8l-1.9,9.6
		L92.3,188.4H57.7L8.3,13.9h33.4L74,142l1.9,13.2l2.6-13.2l31.2-125.8H147.5z"/>
	<path class="st1" d="M352.2,191.7c-13.9,0-26.2-2.3-37-7c-10.7-4.6-19.8-11-27.2-19.1c-7.4-8.1-13.1-17.6-16.9-28.7s-5.8-23-5.8-36
		c0-12.5,2-24.2,5.9-35.3c3.9-11,9.6-20.7,17-28.9c7.4-8.2,16.5-14.7,27.2-19.4c10.7-4.7,23-7.1,36.7-7.1c15.7,0,29,2.7,40,8.2
		c11,5.4,19.9,12.5,26.9,21.2c7,8.7,12,18.5,15.1,29.3c3.1,10.8,4.7,21.5,4.7,32c0,11.8-1.9,23.2-5.8,34.1
		c-3.8,10.9-9.4,20.5-16.7,28.9c-7.3,8.4-16.3,15.1-27.1,20.2C378.5,189.2,366.1,191.7,352.2,191.7z M352.2,35
		c-8.3,0-15.6,1.8-21.8,5.3c-6.2,3.5-11.5,8.3-15.7,14.4c-4.2,6.1-7.4,13.1-9.6,21.1c-2.2,8-3.2,16.4-3.2,25.2
		c0,8.3,1.1,16.4,3.2,24.4s5.4,15,9.6,21.1c4.2,6.2,9.5,11.1,15.7,14.9c6.2,3.8,13.5,5.6,21.8,5.6c6.6,0,12.9-1.5,19-4.4
		c6.1-3,11.4-7.2,16.1-12.8c4.6-5.6,8.4-12.5,11.2-20.6c2.8-8.2,4.2-17.5,4.2-28.1c0-9.4-1.2-18.2-3.5-26.3c-2.3-8.1-5.6-15-10-20.9
		c-4.3-5.8-9.6-10.4-15.8-13.8C367.1,36.7,360,35,352.2,35z"/>
	<path class="st1" d="M587.6,64c0,9.6-2.2,17.9-6.5,25c-4.3,7-10.1,12.7-17.3,17l-6.7,2.6c0.6,0.3,1.5,0.7,2.6,1.2
		c1.1,0.5,2,1,2.6,1.4c4.8,4.2,8.6,9.1,11.3,14.8c2.7,5.7,5.1,11.8,7.1,18.5c2,6.6,4,13.7,6,21.1c2,7.4,4.8,15,8.3,22.7h-35.3
		c-2.9-6.1-5.2-12.6-6.8-19.6c-1.7-7-3.5-13.7-5.4-20.3c-1.9-6.6-4.2-12.6-6.7-18.2c-2.6-5.6-6.1-10.2-10.6-13.7
		c-3.4,0.3-6.9,0.4-10.7,0.1c-3.8-0.2-7.7-1-11.9-2.3c1-2.2,2-4.6,3.2-7.1c1.2-2.5,2.6-4.8,4.3-7c1.7-2.2,3.6-4,5.8-5.4
		c2.2-1.4,4.6-2.3,7.3-2.6c3.4-0.3,6.5-1.2,9.4-2.8c2.9-1.5,5.4-3.5,7.6-6c2.2-2.5,3.9-5.4,5.2-8.8c1.3-3.4,1.9-7,1.9-10.8
		c0-4.2-0.9-8-2.6-11.5c-1.8-3.5-4.1-6.6-7.1-9.1c-3-2.6-6.5-4.6-10.6-6c-4.1-1.4-8.4-2.2-13.1-2.2c-2.2,0-4.1,0-5.6,0.1
		c-1.5,0.1-3,0.2-4.4,0.2c-1.4,0.1-3,0.2-4.6,0.5c-1.6,0.2-3.4,0.4-5.5,0.6v151.7h-34.6V16c6.4-1.1,12.1-2,17-2.8
		c5-0.7,9.5-1.3,13.6-1.7c4.1-0.4,8-0.7,11.9-0.8c3.8-0.2,7.9-0.2,12.2-0.2c9.4,0,18.3,1.2,26.6,3.6c8.3,2.4,15.6,5.9,21.8,10.4
		c6.2,4.6,11.2,10.2,14.8,16.8C585.8,48,587.6,55.6,587.6,64z"/>
	<path class="st1" d="M628.4,188.4V13.9h34.3v174.5H628.4z M712.7,83.7l62.2,104.6h-39.4l-39.4-77.3l-1.7-5.8l-2.9,5.3L676.4,130
		c-1.4-5.3-2.1-10.7-1.9-16.3c0.2-5.6,0.8-11.1,2-16.4c1.2-5.4,2.9-10.4,5-15.2c2.2-4.8,4.7-9.1,7.6-13l39.6-55.2h37.7L712.7,83.7z"
		/>
	<path class="st1" d="M848,34.8c-7.2,0-13,1.8-17.3,5.3c-4.3,3.5-6.5,8-6.5,13.4c0,5.4,2,10.2,6.1,14.2c4.1,4,9.1,7.8,15.1,11.3
		c6,3.5,12.6,7.1,19.7,10.8c7.1,3.7,13.7,7.9,19.7,12.7s11,10.5,15.1,17c4.1,6.6,6.1,14.5,6.1,23.8c0,7.7-1.5,14.5-4.4,20.5
		c-3,6-7.1,11-12.5,15.1c-5.4,4.1-11.8,7.2-19.3,9.4c-7.5,2.2-15.8,3.2-25,3.2c-6.9,0-14.8-0.9-23.9-2.8c-9-1.8-19.1-5.3-30.1-10.4
		L800,156c8.6,4.2,16.8,7,24.4,8.5c7.6,1.5,14.4,2.3,20.5,2.3c4.3,0,8.3-0.6,11.9-1.8c3.6-1.2,6.7-2.8,9.4-4.9
		c2.6-2.1,4.7-4.5,6.1-7.2c1.4-2.7,2.2-5.7,2.2-8.9c0-5.8-2-10.7-6-14.9c-4-4.2-9-8-15.1-11.6c-6.1-3.6-12.6-7.2-19.6-10.7
		c-7-3.5-13.5-7.6-19.6-12.1c-6.1-4.6-11.1-9.9-15.1-16.1c-4-6.2-6-13.6-6-22.2c0-7.8,1.4-14.6,4.2-20.4c2.8-5.8,6.6-10.5,11.4-14.2
		c4.8-3.7,10.4-6.4,16.8-8.3c6.4-1.8,13.2-2.8,20.4-2.8c3.7,0,7.2,0.1,10.7,0.4c3.4,0.2,7,0.6,10.8,1.2c3.8,0.6,7.7,1.4,11.8,2.4
		c4.1,1,8.7,2.4,13.8,4L884,40.5c-7.2-2.1-13.7-3.6-19.4-4.4C858.8,35.2,853.3,34.8,848,34.8z"/>
</g>
</svg>
