<?xml version="1.0" encoding="utf-8"?>
<!-- Generator: Adobe Illustrator 22.0.1, SVG Export Plug-In . SVG Version: 6.00 Build 0)  -->
<svg version="1.1" id="圖層_1" xmlns="http://www.w3.org/2000/svg" xmlns:xlink="http://www.w3.org/1999/xlink" x="0px" y="0px"
	 viewBox="0 0 740 200" style="enable-background:new 0 0 740 200;" xml:space="preserve">
<style type="text/css">
	.st0{enable-background:new    ;}
	.st1{fill:#CCCCCC;}
</style>
<g class="st0">
	<path class="st1" d="M53.9,188.4H20.3V13.9h33.6V188.4z"/>
	<path class="st1" d="M129,66.2l-3.8-8.6l0.5,8.2v122.6H96.4V13.9h33.1l73.7,117.4l3.4,9.6l-0.5-9.6V13.9h30.5v174.5h-30.5L129,66.2
		z"/>
	<path class="st1" d="M347.7,166.5c9.1,0,17-1.9,23.6-5.8c6.6-3.8,12.1-8.9,16.4-15.1c4.3-6.2,7.5-13.3,9.5-21.1
		c2-7.8,3-15.8,3-23.8c0-9.4-1.2-18.2-3.7-26.2c-2.5-8-6.4-14.9-11.7-20.6c-5.3-5.8-12.1-10.3-20.3-13.6c-8.3-3.3-18.2-4.9-29.7-4.9
		c-3.2,0-6.5,0.2-10,0.5c-3.5,0.3-7,0.8-10.7,1.4v151h-33.6V17c10.7-2.2,20.7-3.8,30-4.8c9.3-1,17.4-1.4,24.5-1.4
		c16,0,30.3,2,42.8,6.1c12.6,4.1,23.2,10,31.9,17.6c8.7,7.7,15.4,17.1,19.9,28.2c4.6,11.1,6.8,23.8,6.8,38c0,12.6-2.2,24.5-6.5,35.5
		c-4.3,11-10.2,20.6-17.8,28.8c-7.5,8.2-16.5,14.6-27,19.2c-10.5,4.6-21.8,7-34,7c-2.2,0-4.3,0-6.1-0.1c-1.8-0.1-3.8-0.3-5.9-0.6
		c-2.1-0.3-4.4-0.7-6.8-1.2c-2.5-0.5-5.5-1.2-9-2.2c1-2.1,2.2-4.3,3.6-6.7s3.1-4.6,5-6.7c1.9-2.1,4.2-3.8,6.7-5.2
		C341.4,167.2,344.3,166.5,347.7,166.5z"/>
	<path class="st1" d="M459.8,13.9h104.6v24.7h-70.3v125h74.2v24.7H459.8V13.9z M503.2,108.9c0.8-2.6,1.8-5.3,3.1-8.2
		c1.3-2.9,2.9-5.5,4.8-7.9c1.9-2.4,4.2-4.4,6.8-5.9c2.6-1.5,5.7-2.3,9.2-2.3h29v24.2H503.2z"/>
	<path class="st1" d="M624.6,188.4h-36.7l47.5-78c1.4,2.1,3.1,4.8,5,8.2c1.9,3.4,3.5,7,4.7,10.9c1.2,3.9,1.8,8,1.9,12.2
		c0.1,4.2-0.9,8.2-3,11.9L624.6,188.4z M590.6,13.9h37.9L658,71.2l2.4,7.4l1.9-7.4l29.5-57.4h37.7L677.4,100l54.7,88.3H695
		L590.6,13.9z"/>
</g>
</svg>
