<?xml version="1.0" encoding="utf-8"?>
<!-- Generator: Adobe Illustrator 16.0.0, SVG Export Plug-In . SVG Version: 6.00 Build 0)  -->
<!DOCTYPE svg PUBLIC "-//W3C//DTD SVG 1.1//EN" "http://www.w3.org/Graphics/SVG/1.1/DTD/svg11.dtd">
<svg version="1.1" id="圖層_1" xmlns="http://www.w3.org/2000/svg" xmlns:xlink="http://www.w3.org/1999/xlink" x="0px" y="0px"
	 width="235.719px" height="198.175px" viewBox="0 0 235.719 198.175" enable-background="new 0 0 235.719 198.175"
	 xml:space="preserve">
<g>
	<path fill="#DCC88B" d="M233.185,0.342c-15.928,11.92-31.98,23.779-49.239,33.73c-16.68,9.618-35.469,18.782-54.876,20.744
		c-7.128,0.721-14.565,0.366-21.319-2.099c3.195-2.927,6.364-6.234,7.267-10.458c1.913-8.943-6.65-13.121-13.765-8.939
		c-3.301,1.94-7.922,5.409-8.5,9.482c-0.647,4.564,3.548,7.785,6.967,9.922c0.558,0.349,1.122,0.678,1.69,0.994
		c-0.542,0.464-1.08,0.926-1.605,1.384c-3.775,3.294-7.688,6.431-11.779,9.326c-7.832,5.541-16.303,10.287-25.382,13.449
		c-19.626,6.834-42.832,5.822-59.54-7.543c-1.757-1.406-4.271,1.077-2.496,2.496c11.306,9.044,25.373,12.977,39.514,12.713
		c0.972,25.429,0.973,50.888,0.001,76.317c-2.565,2.297-3.072,11.205-3.404,13.143c-3.921,1.113-7.595,2.703-11.135,4.827
		c-0.465,0.279-0.61,1-0.179,1.386c3.374,3.022,7.264,4.349,11.599,3.98c-1.864,3.816-2.942,7.787-3.301,12.086
		c-0.053,0.639,0.802,1.139,1.328,0.762c2.182-1.563,4.363-3.126,6.545-4.688c1.829-1.311,4.998-4.721,7.476-3.559
		c1.245,0.584,2.467,2.258,3.69,3.045c1.752,1.127,3.574,1.862,5.561,2.46c0.68,0.205,1.217-0.453,1.085-1.085
		c-0.531-2.565-1.14-5.104-1.909-7.609c-0.375-1.221-1.031-2.476-1.251-3.719c-0.299-1.69-0.267-1.298,0.998-2.545
		c2.538-2.501,4.377-4.436,5.548-7.904c0.189-0.56-0.307-1.104-0.851-1.117c-2.319-0.056-4.632-0.038-6.948,0.13
		c-1.489,0.107-4.179,1.012-5.606,0.644c-3.471-0.894-3.501-7.955-6.199-10.057c-0.455-0.355-0.875-0.562-1.265-0.659
		c0.954-25.288,0.948-50.604-0.02-75.891c6.639-0.287,13.271-1.489,19.616-3.517c11.094-3.546,21.358-9.314,30.692-16.226
		c4.375-3.24,8.568-6.718,12.604-10.371c2.372,1.024,4.814,1.792,7.306,2.341c3.629,23.171,5.339,46.608,5.129,70.061
		c-3.419,1.55-7.98,6.91-9.268,8.176c-3.842-1.436-7.76-2.351-11.898-2.762c-0.611-0.061-0.953,0.61-0.852,1.117
		c0.868,4.327,3.257,7.766,6.917,10c-3.741,1.921-6.938,4.43-9.747,7.647c-0.496,0.567-0.173,1.494,0.625,1.507
		c2.415,0.038,4.83,0.076,7.244,0.114c1.883,0.03,5.56-0.609,7.245,0.114c2.096,0.9,1.98,4.081,2.661,5.93
		c0.723,1.964,1.782,3.706,3.021,5.383c0.351,0.476,1.217,0.664,1.524,0c1.913-4.137,3.477-8.37,4.718-12.751
		c3.97,0.406,7.564-0.456,10.926-2.794c0.411-0.286,0.663-1.009,0.178-1.386c-1.687-1.313-3.394-2.587-5.187-3.755
		c-1.749-1.139-5.457-2.343-6.001-4.527c-0.832-3.337,2.854-7.62,1.421-11.042c-0.39-0.932-1.002-1.34-1.75-1.384
		c0.185-23.193-1.516-46.363-5.063-69.283c15.996,2.81,33.776-3.019,48.075-9.071c13.331-5.644,25.868-12.784,37.953-20.668
		c1.526,17.078,2.374,34.211,2.495,51.357c0.063,9.045-0.071,18.09-0.401,27.129c-0.166,4.519-0.38,9.037-0.645,13.551
		c-0.197,3.375-0.084,7.138-0.677,10.61c-0.139-0.145-0.265-0.292-0.409-0.436c-0.387-0.387-1.119-0.329-1.386,0.179
		c-0.996,1.894-1.937,3.805-2.765,5.779c-0.834,1.989-1.326,5.736-3.456,6.633c-3.129,1.317-8.114-1.568-11.097,0.594
		c-1.298,0.941-1.368,1.956-0.597,3.267c0.938,1.593,3.74,3.192,5.195,4.343c1.579,1.249,3.186,2.459,4.804,3.655
		c-0.732,3.987-0.948,7.96-0.626,12.059c0.041,0.512,0.541,1.079,1.117,0.852c4.188-1.65,7.184-4.576,8.769-8.631
		c2.571,3.347,5.632,6.08,9.306,8.284c0.717,0.431,1.414-0.277,1.296-0.997c-0.61-3.74-3.86-13.774-0.566-16.247
		c1.191-0.894,3.018-1.234,4.317-2.069c1.539-0.99,2.871-2.212,4.118-3.544c0.445-0.475,0.271-1.302-0.39-1.475
		c-2.533-0.663-5.081-1.243-7.665-1.667c-2.106-0.346-4.7-0.007-5.707-1.86c-0.626-1.153-0.591-2.922-1.159-4.211
		c-0.46-1.046-1.017-1.961-1.658-2.819c0.771-3.413,0.686-7.138,0.895-10.551c0.285-4.66,0.519-9.322,0.699-13.987
		c0.355-9.184,0.507-18.375,0.456-27.565c-0.1-17.808-0.983-35.603-2.599-53.336c11.403-7.528,22.419-15.685,33.329-23.849
		C236.764,2.045,235.006-1.021,233.185,0.342z M47.317,173.654c0.186,0.374,0.626,0.469,0.997,0.406
		c4.104-0.7,8.183-1.001,12.326-0.972c-1.313,3.126-3.45,5.419-6.547,7.074c-0.313,0.168-0.541,0.648-0.405,0.997
		c1.514,3.899,2.708,7.866,3.632,11.933c-2.732-1.083-4.583-2.624-7.021-4.542c-0.78-0.613-1.258-1.221-2.311-1.258
		c-2.051-0.072-4.511,2.54-5.995,3.603c-2.105,1.508-4.211,3.016-6.316,4.525c0.535-3.863,1.715-7.359,3.647-10.871
		c0.392-0.712-0.251-1.435-0.997-1.296c-3.959,0.737-7.626-0.148-10.744-2.535c3.738-2.104,7.669-3.63,11.871-4.603
		c1.106-0.256,0.638-1.958-0.47-1.702c-0.145,0.034-0.285,0.073-0.429,0.108c0.367-2.73,1.274-9.73,2.21-10.688
		c0.236,0.04,0.482-0.003,0.687-0.133C43.831,164.163,46.606,172.223,47.317,173.654z M128.354,148.639
		c-2.86,1.69-5.892,2.329-9.339,1.82c-0.472-0.07-0.947,0.111-1.086,0.616c-1.096,4.004-2.476,7.865-4.145,11.654
		c-1.516-2.501-2.19-4.986-2.972-7.919c-0.364-1.365-0.465-2.048-1.836-2.671c-1.639-0.745-4.599-0.261-6.309-0.288
		c-2.553-0.041-5.105-0.081-7.658-0.121c2.742-2.781,5.877-4.968,9.483-6.612c0.586-0.267,0.568-1.251,0-1.524
		c-3.701-1.78-6.152-4.664-7.256-8.498c4.231,0.527,8.203,1.601,12.154,3.309c1.032,0.446,1.932-1.074,0.891-1.524
		c-0.177-0.076-0.354-0.144-0.531-0.218c1.859-1.931,4.562-5.222,6.651-5.908c4-1.313,1.265,8.387,0.927,10.276
		c-0.065,0.37,0.039,0.812,0.406,0.997C121.486,143.927,125.003,146.118,128.354,148.639z M103.229,50.678
		c-1.824-0.995-4.464-2.236-5.61-4.024c-2.838-4.423,1.149-7.375,4.27-9.541c2-1.389,5.217-3.126,7.648-1.679
		c3.879,2.308,1.883,7.485,0.013,10.114c-1.466,2.06-3.33,3.912-5.275,5.665C103.925,51.039,103.574,50.867,103.229,50.678z
		 M204.245,142.546c4.111,0.37,8.134,1.058,12.13,2.025c-2.134,1.91-4.408,3.013-7.131,4.263c-1.133,0.52-1.904,0.702-2.33,1.932
		c-0.599,1.732,0.321,4.265,0.595,5.946c0.451,2.762,0.901,5.523,1.352,8.285c-3.198-2.176-5.854-4.805-8.098-8.05
		c-0.419-0.606-1.399-0.56-1.613,0.211c-1.088,3.917-3.475,6.847-7.057,8.581c-0.218-4.271,0.142-8.419,1.129-12.625
		c0.259-1.105-1.442-1.576-1.702-0.469c-0.036,0.152-0.064,0.305-0.099,0.458c-1.729-1.285-3.442-2.589-5.121-3.939
		c-0.604-0.486-3.519-2.361-3.479-2.881c0.201-2.619,9.958-1.372,11.642-1.373c0.395,0,0.74-0.275,0.851-0.648
		c1.198-4,2.739-7.824,4.615-11.542c0.113,0.131,0.219,0.266,0.327,0.399c-0.121,0.431-0.244,0.861-0.398,1.276
		c-0.385,1.036,1.203,1.487,1.656,0.544c1.153,1.996,1.771,4.216,1.849,6.724C203.379,142.173,203.756,142.502,204.245,142.546z"/>
</g>
</svg>
