<svg id="habit_cat" xmlns="http://www.w3.org/2000/svg" width="64" height="64" viewBox="0 0 64 64">
  <circle id="O" cx="32" cy="32" r="32" fill="#e1cd8d"/>
  <g id="cat">
    <path id="Path_2804" data-name="Path 2804" d="M163.538,40.445h-5.346s-3.053-4.816-4.417-4.566-1.85,10.674-1.85,10.674c0,4.414,4.512,7.993,8.94,7.993s8.94-3.578,8.94-7.993c0,0,.4-10.4-1.182-10.757S163.538,40.445,163.538,40.445Zm-6.6,7.306c-.738,0-1.336-.995-1.336-1.731s.6-1.676,1.336-1.676,1.336.94,1.336,1.676S157.678,47.751,156.94,47.751Zm7.851,0c-.738,0-1.336-.995-1.336-1.731s.6-1.676,1.336-1.676,1.336.94,1.336,1.676S165.53,47.751,164.791,47.751Z" transform="translate(-128.055 -24.261)" fill="#9b414b"/>
    <path id="Path_2805" data-name="Path 2805" d="M97.864,246.4a11.432,11.432,0,0,1-5.684,1.421,10.057,10.057,0,0,1-5.275-1.691s-9.284,4.058-9.284,12.48,9.562,7.737,9.562,7.737h13.821s3.412.089,3.412-2.123-2.347-2.382-3.248-2.382H87.65a6.66,6.66,0,0,1-3.731-1.232c-1.414-1.211.119-2.77,1.188-2a5.768,5.768,0,0,0,3.005,1.151H99.624S102.491,255.385,97.864,246.4Z" transform="translate(-59.622 -215.467)" fill="#9b414b"/>
    <g id="_" data-name="=" transform="translate(14.704 18.841)">
      <line id="Line_174" data-name="Line 174" x1="4.602" y1="1.841" transform="translate(0.92 0)" fill="none" stroke="#9b414b" stroke-linecap="round" stroke-width="2"/>
      <line id="Line_175" data-name="Line 175" x1="5.522" transform="translate(0 5.522)" fill="none" stroke="#9b414b" stroke-linecap="round" stroke-width="2"/>
      <line id="Line_176" data-name="Line 176" x1="4.602" y2="1.841" transform="translate(0.92 9.204)" fill="none" stroke="#9b414b" stroke-linecap="round" stroke-width="2"/>
    </g>
    <g id="_2" data-name="=" transform="translate(45.316 18.841)">
      <line id="Line_174-2" data-name="Line 174" y1="1.841" x2="4.602" transform="translate(0 0)" fill="none" stroke="#9b414b" stroke-linecap="round" stroke-width="2"/>
      <line id="Line_175-2" data-name="Line 175" x2="5.522" transform="translate(0 5.522)" fill="none" stroke="#9b414b" stroke-linecap="round" stroke-width="2"/>
      <line id="Line_176-2" data-name="Line 176" x2="4.602" y2="1.841" transform="translate(0 9.204)" fill="none" stroke="#9b414b" stroke-linecap="round" stroke-width="2"/>
    </g>
  </g>
</svg>
