<svg id="habit_dance" xmlns="http://www.w3.org/2000/svg" width="64" height="64" viewBox="0 0 64 64">
  <circle id="Ellipse_33" data-name="Ellipse 33" cx="32" cy="32" r="32" fill="#e1cd8d"/>
  <circle id="Ellipse_34" data-name="Ellipse 34" cx="5" cy="5" r="5" transform="matrix(0.891, -0.454, 0.454, 0.891, 25.166, 13.681)" fill="#9b414b"/>
  <path id="Path_2798" data-name="Path 2798" d="M45.619,31.236A13.292,13.292,0,0,1,33.3,31.011a14.944,14.944,0,0,0,.953,3.362c0,.009,0,.018.008.027,4.026,1.855,10.09,5.9,11.205,13.7a2.5,2.5,0,1,1-4.95.707c-.782-5.473-5.359-8.465-8.387-9.867-.964,3.253-3.933,7.942-12.61,11.8a2.5,2.5,0,1,1-2.031-4.569c10.657-4.736,10.1-10.136,10.087-10.188-.015-.075-.007-.149-.015-.223a15.379,15.379,0,0,1-.827-6.443,5.494,5.494,0,0,0-2.849,4.735,2.5,2.5,0,0,1-5,0c0-7.372,7.02-10.49,10.732-11.109a2.5,2.5,0,0,1,2.313.844c.209.24,5.342,6.04,11.456,2.982a2.5,2.5,0,0,1,2.237,4.472Z" transform="matrix(0.998, -0.07, 0.07, 0.998, -2.03, 1.271)" fill="#9b414b" stroke="#e1cd8d" stroke-width="0.5"/>
  <path id="Path_2799" data-name="Path 2799" d="M15.092,32.094A7.2,7.2,0,0,0,16,39.035" transform="matrix(0.995, -0.105, 0.105, 0.995, -3.765, 3.614)" fill="none" stroke="#9b414b" stroke-linecap="round" stroke-miterlimit="10" stroke-width="2"/>
  <path id="Path_2800" data-name="Path 2800" d="M50.191,31.642a7.2,7.2,0,0,0-.307-6.993" transform="matrix(0.921, -0.391, 0.391, 0.921, -7.127, 17.754)" fill="none" stroke="#9b414b" stroke-linecap="round" stroke-miterlimit="10" stroke-width="2"/>
  <path id="Path_2801" data-name="Path 2801" d="M53.593,33.11a8.319,8.319,0,0,0,.832-6.951" transform="matrix(0.921, -0.391, 0.391, 0.921, -7.127, 17.754)" fill="none" stroke="#9b414b" stroke-linecap="round" stroke-miterlimit="10" stroke-width="2"/>
  <path id="Path_2802" data-name="Path 2802" d="M11.1,34.8a9.627,9.627,0,0,0,1.619,6.557" transform="matrix(0.995, -0.105, 0.105, 0.995, -3.765, 3.614)" fill="none" stroke="#9b414b" stroke-linecap="round" stroke-miterlimit="10" stroke-width="2"/>
</svg>
