<svg xmlns="http://www.w3.org/2000/svg" width="24" height="24" viewBox="0 0 24 24">
  <g id="user" transform="translate(0 -4)">
    <path id="Path_2820" data-name="Path 2820" d="M93.174,12.286a5.944,5.944,0,0,0,4.343-1.8,5.944,5.944,0,0,0,1.8-4.343,5.945,5.945,0,0,0-1.8-4.343,6.141,6.141,0,0,0-8.686,0,5.944,5.944,0,0,0-1.8,4.343,5.944,5.944,0,0,0,1.8,4.344A5.945,5.945,0,0,0,93.174,12.286Zm0,0" transform="translate(-81.317 4)" fill="#f7eae4"/>
    <path id="Path_2821" data-name="Path 2821" d="M23.657,252.946a11.338,11.338,0,0,0-.447-1.606,7.48,7.48,0,0,0-.751-1.5,5.807,5.807,0,0,0-1.133-1.3,5.135,5.135,0,0,0-1.627-.9,6.318,6.318,0,0,0-2.078-.33,2.279,2.279,0,0,0-1.126.42,8.763,8.763,0,0,1-4.547,1.377A8.758,8.758,0,0,1,7.4,247.736a2.276,2.276,0,0,0-1.126-.42,6.31,6.31,0,0,0-2.077.331,5.131,5.131,0,0,0-1.628.9,5.807,5.807,0,0,0-1.132,1.3,7.494,7.494,0,0,0-.751,1.5,11.365,11.365,0,0,0-.447,1.606,14.285,14.285,0,0,0-.361,2.077A3.946,3.946,0,0,0,1.3,258.2c.93.777,2.122.729,3.618.729H18.765c1.5,0,2.763.049,3.693-.729a3.944,3.944,0,0,0,1.419-3.176A13.388,13.388,0,0,0,23.657,252.946Z" transform="translate(0.123 -230.927)" fill="#f7eae4"/>
  </g>
</svg>
