<svg xmlns="http://www.w3.org/2000/svg" width="24" height="24" viewBox="0 0 24 24">
  <g id="icon_work" transform="translate(-950 -2464)">
    <rect id="frame" width="24" height="24" transform="translate(950 2464)" fill="none"/>
    <path id="work" d="M13.75,45.063a.687.687,0,0,1-.687.688H8.938a.687.687,0,0,1-.687-.687V43H0v6.188A2.115,2.115,0,0,0,2.063,51.25H19.938A2.115,2.115,0,0,0,22,49.188V43H13.75Zm6.187-8.937H16.5V34.063A2.115,2.115,0,0,0,14.438,32H7.563A2.115,2.115,0,0,0,5.5,34.063v2.063H2.063A2.115,2.115,0,0,0,0,38.188v3.438H22V38.188A2.115,2.115,0,0,0,19.938,36.125Zm-6.187,0H8.25V34.75h5.5Z" transform="translate(951 2433.5)" fill="#f7eae4"/>
  </g>
</svg>
