<svg xmlns="http://www.w3.org/2000/svg" width="48" height="48" viewBox="0 0 48 48">
  <g id="airplane" transform="translate(624 46)">
    <rect id="Rectangle_338" data-name="Rectangle 338" width="2.739" height="4" rx="1.369" transform="translate(-601.369 -27.014)" fill="#f7eae4"/>
    <rect id="Rectangle_339" data-name="Rectangle 339" width="2.739" height="4" rx="1.369" transform="translate(-601.369 -32.839)" fill="#f7eae4"/>
    <path id="Path_2818" data-name="Path 2818" d="M-576.195-19.49l-17.9-9.588v-7.553a14.068,14.068,0,0,0-1.537-5.631C-596.844-44.672-598.4-46-600-46s-3.156,1.328-4.371,3.738a14.069,14.069,0,0,0-1.537,5.631v7.553l-17.9,9.588a.369.369,0,0,0-.195.325v6.855a.369.369,0,0,0,.144.293.369.369,0,0,0,.225.076.371.371,0,0,0,.1-.013l17.628-4.722v5.228a.368.368,0,0,0,.009.08l1.032,4.646-6.458,4.206a.369.369,0,0,0-.168.309V1a.369.369,0,0,0,.12.272.369.369,0,0,0,.25.1h.032l7.873-.677.226,1.019a.369.369,0,0,0,.36.289h5.265a.369.369,0,0,0,.36-.289l.227-1.019,7.873.677h.032a.369.369,0,0,0,.25-.1.369.369,0,0,0,.12-.272V-2.206a.369.369,0,0,0-.168-.309l-6.459-4.206,1.033-4.646a.368.368,0,0,0,.009-.08v-5.227l5.238,1.414a.372.372,0,0,0,.1.013.37.37,0,0,0,.184-.049.369.369,0,0,0,.172-.224l.358-1.337a.369.369,0,0,0-.26-.452l-5.788-1.562v-7.8l15.969,8.555v3.52l-3.646-.967a.367.367,0,0,0-.1-.013.369.369,0,0,0-.356.274l-.358,1.337a.37.37,0,0,0,.037.28.37.37,0,0,0,.224.172l5.854,1.558a.37.37,0,0,0,.1.013.37.37,0,0,0,.225-.076A.369.369,0,0,0-576-12.31v-6.855A.369.369,0,0,0-576.195-19.49Zm-27.59-17.14a11.976,11.976,0,0,1,1.31-4.676c.787-1.561,1.758-2.57,2.475-2.57s1.688,1.009,2.475,2.57a11.977,11.977,0,0,1,1.31,4.676v.161c-1.109-1.75-2.428-2.7-3.785-2.7s-2.675.949-3.785,2.7ZM-609.37-.911v-.345l4.995-3.253.691,3.108Zm10.595.787h-2.451l-2.559-11.516V-22a.369.369,0,0,0-.369-.369h-1.385a.369.369,0,0,0-.369.369v3.132L-621.877-14.6v-3.52l15.969-8.555V-24.5a.369.369,0,0,0,.369.369h1.385a.369.369,0,0,0,.369-.369v-5.3a11.975,11.975,0,0,1,1.31-4.676c.787-1.561,1.758-2.57,2.475-2.57s1.688,1.009,2.475,2.57a11.976,11.976,0,0,1,1.31,4.676v18.161Zm8.144-1.132v.345l-5.686-.489.691-3.108Z" fill="#f7eae4"/>
    <path id="Path_2819" data-name="Path 2819" d="M-215.145,272.6l-1.424-.382a.389.389,0,0,0-.1-.014.393.393,0,0,0-.379.291l-.382,1.424a.393.393,0,0,0,.039.3.393.393,0,0,0,.239.183l1.424.382a.388.388,0,0,0,.1.014.393.393,0,0,0,.379-.291l.382-1.424a.393.393,0,0,0-.039-.3A.393.393,0,0,0-215.145,272.6Z" transform="translate(-369.156 -288.835)" fill="#f7eae4"/>
  </g>
</svg>
