<svg xmlns="http://www.w3.org/2000/svg" width="24" height="24" viewBox="0 0 24 24">
  <g id="icon_school" transform="translate(-950 -2368)">
    <path id="school" d="M13.56,64.16a2.7,2.7,0,0,0-1.847,0L.7,68.14a1.152,1.152,0,0,0,0,2.117l1.92.694A3.374,3.374,0,0,0,1.847,72.9,1.52,1.52,0,0,0,1.2,74.167a1.539,1.539,0,0,0,.547,1.191L.739,79.43a.721.721,0,0,0,.616.9H3.57a.721.721,0,0,0,.617-.9L3.179,75.358a1.569,1.569,0,0,0-.071-2.439,1.9,1.9,0,0,1,.885-1.472l7.72,2.791a2.707,2.707,0,0,0,1.847,0l9.748-3.98a1.153,1.153,0,0,0,0-2.118Zm.371,11.5a3.789,3.789,0,0,1-2.589,0l-5.5-2.069-.56,5.269c0,1.642,3.173,2.973,7.358,2.973s7.579-1.331,7.579-2.972l-.56-5.27Z" transform="translate(949.995 2306.302)" fill="#f7eae4"/>
    <rect id="frame" width="24" height="24" transform="translate(950 2368)" fill="none"/>
  </g>
</svg>
