<svg xmlns="http://www.w3.org/2000/svg" width="217" height="45" viewBox="0 0 217 45">
  <g id="MingHsuan_blue" transform="translate(-11.115 -4.531)">
    <g id="_" data-name="***" transform="translate(190.588 4.531)">
      <g id="Group_33" data-name="Group 33" transform="translate(0 4.263)">
        <path id="Path_42" data-name="Path 42" d="M498.961,15.746l-1.405,7.684,1.405,7.685,1.4-7.685Z" transform="translate(-491.276 -15.746)" fill="#0e3150"/>
        <path id="Path_43" data-name="Path 43" d="M481.035,35.961l7.685,1.405,7.684-1.405" transform="translate(-481.035 -28.277)" fill="#0e3150"/>
        <path id="Path_44" data-name="Path 44" d="M496.4,33.67l-7.684-1.4-7.685,1.4" transform="translate(-481.035 -25.986)" fill="#0e3150"/>
      </g>
      <g id="Group_34" data-name="Group 34" transform="translate(18.833 9.861)">
        <path id="Path_45" data-name="Path 45" d="M540.6,30.473l-.785,4.3.785,4.3.785-4.3Z" transform="translate(-536.302 -30.473)" fill="#0e3150"/>
        <path id="Path_46" data-name="Path 46" d="M530.578,41.772l4.3.786,4.3-.786" transform="translate(-530.578 -37.477)" fill="#0e3150"/>
        <path id="Path_47" data-name="Path 47" d="M539.169,40.492l-4.3-.785-4.3.785" transform="translate(-530.578 -36.197)" fill="#0e3150"/>
      </g>
      <g id="Group_35" data-name="Group 35" transform="translate(13.643)">
        <path id="Path_48" data-name="Path 48" d="M522.852,4.531l-.464,2.541.464,2.54.464-2.54Z" transform="translate(-520.312 -4.531)" fill="#0e3150"/>
        <path id="Path_49" data-name="Path 49" d="M516.927,11.215l2.54.465,2.54-.465" transform="translate(-516.927 -8.674)" fill="#0e3150"/>
        <path id="Path_50" data-name="Path 50" d="M522.008,10.458l-2.54-.465-2.54.465" transform="translate(-516.927 -7.917)" fill="#0e3150"/>
      </g>
    </g>
    <g id="_2" data-name="*" transform="translate(38.895 8.044)">
      <path id="Path_51" data-name="Path 51" d="M97.093,13.773l-1.185,6.481,1.185,6.481,1.185-6.481Z" transform="translate(-90.612 -13.773)" fill="#0e3150"/>
      <path id="Path_52" data-name="Path 52" d="M81.976,30.823l6.481,1.185,6.48-1.185" transform="translate(-81.976 -24.342)" fill="#0e3150"/>
      <path id="Path_53" data-name="Path 53" d="M94.938,28.89,88.457,27.7,81.976,28.89" transform="translate(-81.976 -22.409)" fill="#0e3150"/>
    </g>
    <g id="_3" data-name="*" transform="translate(52.032 7.656)">
      <path id="Path_54" data-name="Path 54" d="M122.461,12.753,122,15.294l.465,2.54.464-2.54Z" transform="translate(-119.92 -12.753)" fill="#0e3150"/>
      <path id="Path_55" data-name="Path 55" d="M116.535,19.437l2.54.465,2.54-.465" transform="translate(-116.535 -16.896)" fill="#0e3150"/>
      <path id="Path_56" data-name="Path 56" d="M121.616,18.68l-2.54-.465-2.54.465" transform="translate(-116.535 -16.139)" fill="#0e3150"/>
    </g>
    <g id="MingHsuan" transform="translate(-156.667 -307.469)">
      <path id="Path_2732" data-name="Path 2732" d="M175.256,338.654s.62,11.583,0,13.9-4.341,4.633-4.961,0-1.86-17.375-.62-20.27,4.341-5.792,7.441-1.737a60.7,60.7,0,0,1,5.581,9.266s5.581-11,11.162-11,8.062,9.266,8.062,15.058,0,11-1.86,11-2.48-2.9-3.1-6.95-1.24-10.425-3.1-10.425-6.2,9.266-9.922,9.266S178.977,344.446,175.256,338.654Z" transform="translate(-1.362 -3.596)" fill="#0e3150"/>
      <ellipse id="Ellipse_12" data-name="Ellipse 12" cx="4.16" cy="4.054" rx="4.16" ry="4.054" transform="translate(203.53 329.266)" fill="#0e3150"/>
      <path id="Path_2733" data-name="Path 2733" d="M232.84,361.072c0-3.475-1.189-7.529,1.783-8.108s4.16,4.054,4.16,8.108,0,6.95-2.377,7.529S232.84,364.547,232.84,361.072Z" transform="translate(-25.744 -13.852)" fill="#0e3150"/>
      <path id="Path_2734" data-name="Path 2734" d="M255.269,342.633S254.675,338,252.892,338s-3.566.579-2.971,5.791,1.189,14.479,4.754,14.479,0-7.529,2.377-11,5.348-2.317,5.943,1.158c.806,4.711,3.566,6.95,5.943,6.95s3.566-1.737,1.189-3.475-2.971-4.054-3.566-8.108S260.023,336.842,255.269,342.633Z" transform="translate(-32.722 -7.575)" fill="#0e3150"/>
      <path id="Path_2735" data-name="Path 2735" d="M332.917,335.058l11.885-1.737v-8.687s0-4.633,2.971-4.633,2.971,5.212,2.971,5.212v24.9s0,4.054-2.971,4.054-2.971-5.792-2.971-5.792v-9.266l-11.885,1.737V350.7a3.607,3.607,0,0,1-2.971,3.475c-2.971.579-2.971-4.054-2.971-6.95V326.371s-.594-5.212,2.971-5.212,2.971,4.633,2.971,4.633Z" transform="translate(-64.018)" fill="#0e3150"/>
      <path id="Path_2736" data-name="Path 2736" d="M387.377,349.918c-2.971-4.054-9.827-6.639-7.725-8.687,2.377-2.317,5.943.579,6.537,2.317.531,1.554,2.971,2.317,4.16,1.158s.594-4.633-1.783-6.95-8.32-4.633-12.48-1.737a6.442,6.442,0,0,0-.594,10.425c2.971,2.317,7.726,5.212,6.537,7.529s-4.754,1.158-6.537-.579a3.8,3.8,0,0,0-4.754-.579c-1.189.579,0,6.95,8.914,8.108S390.348,353.972,387.377,349.918Z" transform="translate(-81.632 -6.173)" fill="#0e3150"/>
      <path id="Path_2737" data-name="Path 2737" d="M426.2,349.741s-1.225,6.31-7.131,6.95c-5.348.579-10.1-1.737-10.1-8.108s-.594-11,2.377-11,3.566,2.9,3.566,6.371,0,6.371,2.377,6.371,4.754-.579,5.348-4.633,0-8.687,2.971-8.687,4.16.579,4.16,4.633.594,7.529,1.783,9.266,2.971,6.95-1.189,4.633S426.2,349.741,426.2,349.741Z" transform="translate(-97.28 -7.154)" fill="#0e3150"/>
      <path id="Path_2738" data-name="Path 2738" d="M498.91,341.183s-.594-5.792-3.566-5.212-2.377,2.9-2.377,5.212,1.783,8.687,1.783,13.32,2.377,5.212,4.16,4.633,2.377-3.475,1.783-7.529,1.189-7.529,4.754-7.529,4.754,2.317,4.754,6.371,1.189,8.108,3.566,7.529,2.377-1.737,2.377-4.633-.594-13.9-7.725-15.058S498.91,341.183,498.91,341.183Z" transform="translate(-131.361 -6.704)" fill="#0e3150"/>
      <path id="Path_2739" data-name="Path 2739" d="M471.627,348.395c-1.189-3.475-.594-6.95-5.348-11s-11.885-1.737-14.262.579-4.16,6.371-1.783,6.95a3.3,3.3,0,0,0,3.566-1.737,6.3,6.3,0,0,1,6.537-2.9c4.754.579,5.348,5.792,5.348,5.792-4.16-2.317-10.7-1.158-13.074,2.9a6.679,6.679,0,0,0,6.537,9.846,12.647,12.647,0,0,0,8.914-5.212c1.189,2.317,4.16,4.633,5.943,2.9C475.519,355.026,472.468,350.852,471.627,348.395Zm-10.56,5.7a2.945,2.945,0,0,1-3.723-1.718,2.851,2.851,0,0,1,2.247-3.364,2.945,2.945,0,0,1,3.723,1.718A2.851,2.851,0,0,1,461.068,354.1Z" transform="translate(-113.587 -6.387)" fill="#0e3150"/>
      <path id="Path_2740" data-name="Path 2740" d="M303.422,337.655c-.516-4.023-3.566-9.266-10.1-8.687S285,336.5,285,339.393s1.189,9.846,6.537,9.266,7.131-5.791,7.131-5.791c1.189,9.266-5.776,12.13-8.914,12.741a2.757,2.757,0,0,0-1.783,4.633c1.189,1.158,8.32.579,12.48-4.054S304.017,342.288,303.422,337.655Zm-7.957,1.112c-.475,2.28-2.011,3.9-3.431,3.62s-2.186-2.357-1.712-4.637,1.809-4.728,4.186-4.149C295.914,333.943,295.94,336.488,295.465,338.767Z" transform="translate(-47.002 -3.756)" fill="#0e3150"/>
    </g>
  </g>
</svg>
