<svg xmlns="http://www.w3.org/2000/svg" width="800" height="166.18" viewBox="0 0 800 166.18">
  <g id="MingHsuan" transform="translate(-12.477 -4.531)">
    <g id="Group_1" data-name="Group 1" transform="translate(12.477 47.793)">
      <path id="Path_1" data-name="Path 1" d="M25.314,131.3c-1.548-13.767-5.107-34.233-6.763-47.987-1.495-12.4-2.3-33.016,9.169-41.366,7.825-5.7,16.222,6.76,19.824,12.1,5.573,8.257,9.75,20.14,14.4,28.92a2.692,2.692,0,0,0,4.606,0c5.409-8.818,10.113-18.047,15.8-26.7,4.048-6.162,11.282-15.851,20.071-14.411,8.4,1.378,14.294,11.467,16.706,18.785a156.7,156.7,0,0,1,5.09,22.109c1.526,8.733,2.605,24.591,2.944,33.453.167,4.378,1.169,12.972-2.129,16.57-2.222,2.424-6.6-8.685-6.913-9.752-2.1-7.214-2.667-21.876-3.568-29.3-.9-7.389-1.335-16.783-6.5-22.664-5.685-6.468-14.422.248-19.017,4.419-4.27,3.876-6.995,9.248-9.811,14.189-2.824,4.957-6.512,12.531-12.926,13.251-6.847.769-12.374-7.708-15.737-12.455-3.977-5.615-8.677-15.885-12.071-21.858-1.381-2.43-4.8-1.193-4.969,1.346-.707,10.341,1.619,24.978,1.147,35.342-.23,5.031-.465,30.9-9.6,25.849-3.011-1.668-5.7,2.939-2.691,4.6,23.079,12.778,15.8-55.951,16.474-65.8l-4.969,1.345c6.508,11.453,22.315,46.541,39.816,34.215C81.04,100.326,84.332,90.6,89.2,83.4c1.953-2.889,10.426-12.679,14.732-8.922,3.968,3.46,4.3,11.77,4.94,16.547,1,7.458,1.623,21.991,3.122,29.373,1.122,5.527,2.93,11.953,7.5,15.657,3.508,2.841,7.832,2.953,10.455-1,2.444-3.685,2.466-9.182,2.584-13.411A249.59,249.59,0,0,0,131.066,92.7C129.5,80.325,127.76,66.8,122.785,55.236,117.244,42.362,104.562,30.029,90.5,40.308,77.135,50.08,70.352,66.572,61.949,80.273h4.606C61.191,70.144,56.367,56.9,49.536,47.636,44.195,40.39,36.16,32.319,26.512,36.491c-4.9,2.121-8.733,8.122-10.694,12.812C12.937,56.19,12.341,66.425,12.5,73.82c.369,17.082,5.587,40.589,7.488,57.481.373,3.376,5.71,3.412,5.326,0Z" transform="translate(-12.477 -35.35)" fill="#e1cd8d"/>
    </g>
    <g id="Group_2" data-name="Group 2" transform="translate(143.597 65.999)">
      <path id="Path_2" data-name="Path 2" d="M131.227,54.769c-5.184-8.7-16.241-8.338-22.169-.489-5.126,6.789-4.079,17.867,3.41,22.579,5.826,3.667,13.789.91,18.309-3.526,5.517-5.417,4.444-13.108-1.032-18.038-2.548-2.294-6.332,1.466-3.77,3.77,3.213,2.893,4.44,6.53,1.428,10.07a11.194,11.194,0,0,1-10.77,3.742c-5.173-1.3-6.233-8.514-4.853-12.757,2.2-6.751,11.012-9.089,14.843-2.662,1.759,2.951,6.37.27,4.6-2.691Z" transform="translate(-105.884 -48.319)" fill="#e1cd8d"/>
    </g>
    <g id="Group_3" data-name="Group 3" transform="translate(153.883 101.767)">
      <path id="Path_3" data-name="Path 3" d="M122.936,118.077c-3.334-6.433-3.862-14.763-4.187-21.856-.08-1.756-.348-17.8,3.09-16.969,3.139.761,6.384,6.132,7.516,8.814,2.165,5.135,2.632,11.136,3.111,16.62.4,4.568.789,8.869-.633,13.271a28.138,28.138,0,0,1-3.543,7.125c-2.673,3.939-4.092-.274-5.084-3.17-1.109-3.233-6.261-1.845-5.142,1.418,1.718,5.014,5.267,11.56,11.425,7.948,5.046-2.961,7.739-11.085,8.65-16.48,1.119-6.626-.616-14.81-1.8-21.337a29.015,29.015,0,0,0-9.348-17.173c-8.9-7.789-12.844,4.566-13.456,11.565-.905,10.35-.069,23.52,4.8,32.914,1.582,3.055,6.185.357,4.6-2.691Z" transform="translate(-113.212 -73.8)" fill="#e1cd8d"/>
    </g>
    <g id="Group_4" data-name="Group 4" transform="translate(189.613 73.29)">
      <path id="Path_4" data-name="Path 4" d="M138.717,56.859c4.114,22.272,4.259,45.132,9.6,67.2.809,3.341,5.951,1.925,5.142-1.418-5.338-22.056-5.484-44.926-9.6-67.2-.623-3.379-5.762-1.943-5.142,1.418Z" transform="translate(-138.665 -53.513)" fill="#e1cd8d"/>
    </g>
    <g id="Group_5" data-name="Group 5" transform="translate(190.801 70.394)">
      <path id="Path_5" data-name="Path 5" d="M143.9,59.935c1.1-1.4,2.847-4.232,4.822-2.6a14.923,14.923,0,0,1,3.1,4.561c1.807,3.356,3.128,6.95,4.957,10.3a2.665,2.665,0,0,0,3.648.957c6.686-5.032,14.96-13.406,23.763-14.082,11.686-.9,13.653,21.164,15.575,28.645,1.286,5,3.067,10.6,5.963,14.93,2.066,3.091,4.965,5.534,7.048,8.613.724,1.071.139.931.907.62a9.145,9.145,0,0,1-3.417.277,14.116,14.116,0,0,1-6.819-1.635c-3.567-1.92-5.852-5.674-7.725-9.117-5.19-9.541-9.025-31.263-24.376-24.726-14.251,6.07-8.525,28.142-8.745,39.82-.041,2.135-.126,4.947-1.642,6.627-1.715,1.9-5.694.215-7.566-.451-3.248-1.154-4.634,4-1.418,5.142,5.374,1.909,12,2.381,14.613-3.785,2.6-6.133,1.183-13.813.813-20.238-.394-6.843-1.273-16.132,4.366-21.187,6.553-5.875,10.838,2.363,13.16,7.518,3.208,7.125,5.629,14.555,10.683,20.663a19.7,19.7,0,0,0,8.14,5.7c3.262,1.279,9.464,2.055,12.606.018,6.226-4.034-1.394-11.121-4.383-14.534-8.362-9.555-7.847-24.251-12.535-35.543-3.2-7.709-8.764-13.668-17.6-12.413-9,1.277-17.164,9.311-24.1,14.534l3.648.957c-2.9-5.3-4.59-11.518-8.89-15.935-4.21-4.325-9.31-1.3-12.364,2.6-2.1,2.673,1.649,6.475,3.771,3.77Z" transform="translate(-139.511 -51.45)" fill="#e1cd8d"/>
    </g>
    <g id="Group_6" data-name="Group 6" transform="translate(269.258 49.11)">
      <path id="Path_6" data-name="Path 6" d="M241.667,84.8c-2.579,11.39-13.434,25.084-26.535,21.778-12.676-3.2-14.518-20.471-14.373-31.058C200.926,63.24,204.5,52,215.5,45.443c10.826-6.453,27.015-5.27,34.889,5.287,6.732,9.025,7.6,22.238,8.349,33.067.81,11.734,1,23.716-1.859,35.2-4.983,20.017-24.355,34.682-45.125,33.259-1.44-.1-4.771-.467-4.926-2.389-.234-2.9,3.23-6.678,5.364-8.236,6.332-4.623,15.264-5.466,22.259-8.952,15.605-7.774,19.4-30.9,12.085-45.321-1.555-3.067-6.157-.368-4.6,2.691,6.026,11.881,2.788,30.133-9.068,37.417-8.209,5.042-20.434,4.742-26.778,12.681-3.828,4.79-7.558,12.5-.208,16.063,6.37,3.085,15.221,1.286,21.719-.435,20.53-5.434,33.331-23.434,36.037-43.748,1.523-11.431,1.025-23.072-.1-34.517C262.5,67,260.706,55.694,254.24,47.025c-9.255-12.408-27.3-13.16-40.215-6.845-14.275,6.985-18.419,22.021-18.618,36.754-.191,13.957,4.211,31.226,19.589,35.106,15.3,3.86,28.827-12.634,31.816-25.826.755-3.351-4.387-4.773-5.146-1.419Z" transform="translate(-195.402 -36.288)" fill="#e1cd8d"/>
    </g>
    <g id="Group_7" data-name="Group 7" transform="translate(282.753 69.863)">
      <path id="Path_7" data-name="Path 7" d="M209.257,60.057c-4.419,6.477-7.026,17.221.643,22.558,8.1,5.633,18.216-.932,23.217-7.6,4.745-6.322,5.571-16.213-1.234-21.413-7.161-5.47-16.029-1.266-21.142,4.844-2.191,2.618,1.561,6.412,3.77,3.77,3.314-3.96,8.441-7.714,13.623-4.762,5.209,2.966,3.484,9.9.977,13.987-2.895,4.711-10.318,10.239-15.976,6.942s-1.882-11.815.727-15.641c1.944-2.85-2.68-5.514-4.606-2.691Z" transform="translate(-205.016 -51.072)" fill="#e1cd8d"/>
    </g>
    <g id="Group_8" data-name="Group 8" transform="translate(359.158 29.666)">
      <path id="Path_8" data-name="Path 8" d="M259.445,37.766c.062,28.312,1.485,56.7,2.246,85.005.139,5.163.557,35.828,12.5,26.361,7.346-5.824,8.226-17.266,8.286-25.752.041-5.586-.236-11.494,2.32-16.627,2.12-4.255,6.2-5.6,10.445-6.675,8.2-2.085,18.611-4,27.061-2.426,9.875,1.842,6.165,24.689,6.322,31.349.2,8.664-5.878,20.194,6.254,23.363,7.985,2.085,10.977-9.446,13-14.7,4.409-11.466.733-25.853-.451-37.605-1.55-15.343.481-30.918.546-46.3.034-8.09,2.026-16.375-.612-24.278-2.444-7.325-10.676-9.168-16.487-4.464-6.532,5.288-6.446,17.384-7.144,24.926-.469,5.07-.546,10.16-1.015,15.226-.608,6.556-5.1,10.792-10.967,13.185a60.887,60.887,0,0,1-28.305,3.671l2.572,1.958c-2.278-13.524-.6-27.558-2.865-41.178-.851-5.126-2.2-11.23-6.657-14.454-5.027-3.64-11.017,1.9-14.134,5.392-2.281,2.556,1.477,6.342,3.77,3.77,2.309-2.587,6.283-7.335,8.992-2.93,2.8,4.548,3.206,10.951,3.733,16.114,1.172,11.473.1,23.333,2.017,34.7a2.7,2.7,0,0,0,2.572,1.958c10.139,1.082,22.2-.361,31.523-4.6,9.983-4.547,12.976-12.314,13.4-22.685.38-9.3.083-21.4,4.895-29.637,2.645-4.528,7.784-3.049,9.249,1.343s.929,9.543.63,14.074c-.873,13.164-1.148,26.416-1.5,39.61-.362,13.63,2.666,26.973,2.643,40.573-.01,5.138-1.328,9.621-3.073,14.37a18.794,18.794,0,0,1-3.048,5.76,2.357,2.357,0,0,1-3.137.654c-2.852-1.251-2.841-3.794-2.469-6.341a88.4,88.4,0,0,0,1.356-14.213c-.044-6.091.441-12.158-.173-18.236-.71-7.023-4.089-15.02-12-15.819-8.133-.82-16.7.474-24.678,2.009-7.415,1.426-13.858,3.773-17.425,10.935-4.5,9.043-1.345,20.008-3.406,29.581a22.16,22.16,0,0,1-5.821,10.624c-.274.258.239.577-.345-.387a13.294,13.294,0,0,1-1.247-3.682c-1.7-6.812-1.725-14.151-1.866-21.132-.549-27.456-2.124-54.934-2.184-82.393-.008-3.439-5.341-3.441-5.334,0Z" transform="translate(-259.445 -22.436)" fill="#e1cd8d"/>
    </g>
    <g id="Group_9" data-name="Group 9" transform="translate(455.335 60.684)">
      <path id="Path_9" data-name="Path 9" d="M390.328,56.834C379.349,42,359.118,40.442,345.585,52.927a25.641,25.641,0,0,0-7.921,22.255c1.548,10.392,8.063,16.139,16.046,22.179,6.833,5.171,20.75,14.285,15.038,24.86-2.28,4.22-15.516-5.466-17.794-6.918-5.451-3.47-12.091-6.824-18.656-3.909-6.638,2.948-4.354,10.7-1.708,15.684a38.4,38.4,0,0,0,33.732,20.182c13.263.091,30.432-9.624,32.761-23.737,1.794-10.869-7.146-20.243-14.037-27.391s-19.224-16.267-19.019-27.287q-.977,1.287-1.957,2.572c8.188-2,13.062,5.184,18.239,10.225,5.344,5.2,11.58,7.256,18.772,4.592,14.909-5.524-2.507-23.27-8.1-28.871-2.433-2.436-6.2,1.335-3.772,3.77,3.88,3.883,7.742,7.839,10.608,12.552,1.1,1.808,2.674,4.753.98,6.634-2.393,2.656-7.747,2.193-10.567.75-4.879-2.5-8.184-7.756-12.359-11.2a16.638,16.638,0,0,0-15.217-3.588,2.688,2.688,0,0,0-1.958,2.572c-.286,15.3,17.211,26.688,26.1,37.086,4.825,5.643,9.348,13.007,5.866,20.467-5.583,11.961-21.063,17.18-33.256,14.887-9.96-1.874-17.995-8.967-22.651-17.732-1.179-2.221-3.022-6.453.341-7.517,3.612-1.143,7.339.317,10.381,2.132,6.049,3.609,11.959,8.418,18.977,9.961,7.224,1.588,10.365-4.141,10.51-10.511.234-10.344-7.809-16.664-15.323-22.419-8.862-6.789-17.39-12.715-16.867-25.092.4-9.418,8.421-16.65,16.866-19.362,9.839-3.16,20.033.6,26.089,8.783,2.021,2.729,6.654.074,4.606-2.7Z" transform="translate(-327.959 -44.533)" fill="#e1cd8d"/>
    </g>
    <g id="Group_10" data-name="Group 10" transform="translate(539.388 67.961)">
      <path id="Path_10" data-name="Path 10" d="M391.223,62.591c5.285-1.27,10.653-2.225,16-3.2l-3.281-3.279c-2.687,16.358-3.915,48.386,18.737,50.291,12.481,1.05,16.411-14.881,18.3-24.243a153.981,153.981,0,0,0,2.861-29.614q-1.333,1.333-2.666,2.666c6.216-.17,12.451-.258,18.666.007l-2.572-1.958c3.059,12.693,4.074,25.755,6.342,38.592a111.974,111.974,0,0,0,4.749,18.063,41.072,41.072,0,0,1,1.36,4.714,7.809,7.809,0,0,1,.171,1.692c.006.744.924-1.116,1.475-.977-4.065-1.026-8.368-7.333-11-10.281q-3.708-4.161-7.176-8.533c-1.868-2.358-4.8.313-4.458,2.594-.17-1.136-.01,2.052-.066,2.747a16.2,16.2,0,0,1-2.4,6.932c-5.806,9.67-20.61,10.9-30.561,10.315-24.768-1.467-21.075-40.165-22.534-56.966-.3-3.4-5.63-3.428-5.333,0,1.861,21.431-1.568,59.32,27.867,62.3,16.022,1.621,41.249-6.276,38.167-26.743l-4.457,2.594q4.738,5.978,9.947,11.574c2.778,2.982,8.288,10.007,13.139,8.644,6.981-1.962-1.067-18.166-1.908-21.4-4.029-15.506-4.437-31.7-8.188-47.273a2.7,2.7,0,0,0-2.572-1.958c-6.214-.265-12.45-.177-18.666-.007a2.7,2.7,0,0,0-2.666,2.667,164.688,164.688,0,0,1-1.641,22.1c-.935,6.665-2.956,25.673-12.225,26.434-19.679,1.616-17.565-31.363-15.561-43.554A2.711,2.711,0,0,0,405.8,54.25c-5.346.974-10.713,1.93-16,3.2-3.345.8-1.926,5.946,1.416,5.142Z" transform="translate(-387.836 -49.717)" fill="#e1cd8d"/>
    </g>
    <g id="Group_11" data-name="Group 11" transform="translate(626.815 62.01)">
      <path id="Path_11" data-name="Path 11" d="M515.51,92.071c-19.4-16.453-58.574-7.684-54.359,22.332,2,14.213,12.5,24.63,27.214,22.4,13.058-1.976,25.673-10.131,34.611-19.633L518.519,116c1.993,6.891,8.67,16.159,16.86,15.111,3.873-.5,6.571-3.776,7.949-7.217,1.649-4.116.577-7.74-1.04-11.737a126.82,126.82,0,0,0-6.429-12.812c-2.381-4.383-3.529-8.67-4.833-13.476-2.677-9.859-5.927-19.964-12.165-28.2-14.087-18.6-41.537-13.445-58.062-.935C454.657,61.38,448.32,68.858,450.589,77.1c.824,3,3.85,6.721,6.867,7.694,3.31,1.07,6.5-1.633,8.946-3.491,8.7-6.619,18.413-14.887,30.219-13.146C507.913,69.823,511.2,84.431,513.189,93.6c.729,3.362,5.87,1.936,5.143-1.418-2.079-9.606-5.041-20.072-13.244-26.25-6.529-4.917-15.683-3.474-22.857-1.089-5.124,1.7-9.694,4.973-13.921,8.246-2.124,1.642-4.2,3.347-6.367,4.931-2.441,1.787-3.33,1.923-5.291-.615-6.783-8.789,10.633-19.087,16.472-21.9,11.045-5.315,26.4-7.642,36.693.385,8.414,6.561,12.113,17.864,15.022,27.685,1.3,4.4,2.019,9.186,3.813,13.4,1.866,4.384,4.52,8.473,6.673,12.721,2.17,4.286,4.809,8.813,2.483,13.428-3.418,6.777-10.093-.789-12.352-4.39a16.179,16.179,0,0,1-1.79-4.159,2.691,2.691,0,0,0-4.457-1.176,63.849,63.849,0,0,1-26.115,16.86c-4.961,1.623-10.232,2.188-15.248.539-6.087-2-9.088-8.411-10.711-14.089-7.5-26.235,27.936-35.01,44.607-20.871,2.6,2.208,6.4-1.546,3.769-3.773Z" transform="translate(-450.117 -45.478)" fill="#e1cd8d"/>
    </g>
    <g id="Group_12" data-name="Group 12" transform="translate(658.476 114.736)">
      <path id="Path_12" data-name="Path 12" d="M487.987,84.124c-6.485-.528-12.552,4.159-14.78,10.054-2.4,6.352,3.714,11.761,9.7,11.791,11.514.059,20.986-18.791,6.853-22.815-3.314-.945-4.718,4.2-1.418,5.142,8.091,2.3-.175,11.272-4.952,12.307a4.079,4.079,0,0,1-4.805-5.577,9.894,9.894,0,0,1,9.4-5.566c3.429.277,3.4-5.059,0-5.336Z" transform="translate(-472.672 -83.039)" fill="#e1cd8d"/>
    </g>
    <g id="Group_13" data-name="Group 13" transform="translate(719.718 64.703)">
      <path id="Path_13" data-name="Path 13" d="M517.666,56.467c1.989,4.655,1.909,10.739,2.358,15.69.75,8.274,1.32,16.56,2.141,24.827a180.189,180.189,0,0,0,3.594,23.684c1.185,5,2.866,11.033,6.92,14.527,3.807,3.282,8.727,2.145,12.26-.921,6.693-5.8,5.048-18.6,4.752-26.318-.393-10.282-.109-25.3,12.354-28.825,5.654-1.6,11.286,4.1,14.7,7.74,5.01,5.337,5.517,12.338,6.047,19.285.7,9.129,2.81,15.5,9.388,22.059,3.581,3.568,9.581,7.04,13.717,2.364,4.01-4.533,3.254-12.792,2.75-18.288a170.809,170.809,0,0,0-4.705-25.015c-3.133-12.666-8.912-26.188-21.812-31.448a44,44,0,0,0-23.41-2.21c-9.78,1.649-15.969,10.026-22.508,16.685l4.458,1.176c-.967-6.563-.576-15.388-4.914-20.867-4.878-6.155-12.889-2.166-18.2,1.14-2.913,1.814-.237,6.428,2.691,4.6,4.875-3.034,10.577-6.306,12.825.787,1.593,5.027,1.694,10.559,2.458,15.751.3,2.044,3.178,2.48,4.457,1.176,4.5-4.58,8.571-9.7,14.043-13.181S568,57.938,574.159,59c9.79,1.683,16.293,8.293,20.4,16.977,4.5,9.517,6.077,20.5,7.921,30.766a58.161,58.161,0,0,1,.964,15.131c-.147,1.8-.536,4.053-1.772,5.449-1.541,1.741-6.026-3.178-6.892-4.041-9.419-9.391-4.488-22.516-9.774-33.621-3.756-7.888-13.726-17.578-23.341-15.854-9.112,1.634-16.108,12.051-17.14,20.8-1.217,10.32,1.541,20.989-.893,31.179-.605,2.532-2.8,6.731-6.089,6.111-2.281-.431-3.547-3.533-4.375-5.367-3.5-7.737-4.283-17.093-5.235-25.418-1.1-9.626-1.725-19.3-2.58-28.948-.532-6.015-.679-12.752-3.085-18.382-1.348-3.154-5.941-.434-4.606,2.691Z" transform="translate(-516.3 -47.397)" fill="#e1cd8d"/>
    </g>
    <g id="Group_17" data-name="Group 17" transform="translate(670.216 4.531)">
      <g id="Group_14" data-name="Group 14" transform="translate(0 15.743)">
        <path id="Path_14" data-name="Path 14" d="M502.746,15.746l-5.19,28.377,5.19,28.378,5.187-28.378Z" transform="translate(-474.366 -15.746)" fill="#e1cd8d"/>
        <path id="Path_15" data-name="Path 15" d="M481.036,35.961l28.38,5.19,28.377-5.19" transform="translate(-481.036 -7.584)" fill="#e1cd8d"/>
        <path id="Path_16" data-name="Path 16" d="M537.792,37.453l-28.377-5.188-28.38,5.188" transform="translate(-481.036 -9.076)" fill="#e1cd8d"/>
      </g>
      <g id="Group_15" data-name="Group 15" transform="translate(69.546 36.416)">
        <path id="Path_17" data-name="Path 17" d="M542.712,30.473l-2.9,15.861,2.9,15.864,2.9-15.864Z" transform="translate(-526.851 -30.473)" fill="#e1cd8d"/>
        <path id="Path_18" data-name="Path 18" d="M530.579,41.772l15.861,2.9,15.864-2.9" transform="translate(-530.579 -25.911)" fill="#e1cd8d"/>
        <path id="Path_19" data-name="Path 19" d="M562.3,42.606l-15.864-2.9-15.861,2.9" transform="translate(-530.579 -26.745)" fill="#e1cd8d"/>
      </g>
      <g id="Group_16" data-name="Group 16" transform="translate(50.382)">
        <path id="Path_20" data-name="Path 20" d="M524.1,4.531l-1.715,9.383,1.715,9.381,1.714-9.381Z" transform="translate(-514.722 -4.531)" fill="#e1cd8d"/>
        <path id="Path_21" data-name="Path 21" d="M516.927,11.215l9.381,1.715,9.381-1.715" transform="translate(-516.927 -1.832)" fill="#e1cd8d"/>
        <path id="Path_22" data-name="Path 22" d="M535.69,11.708l-9.381-1.715-9.381,1.715" transform="translate(-516.927 -2.326)" fill="#e1cd8d"/>
      </g>
    </g>
    <g id="Group_18" data-name="Group 18" transform="translate(110.036 17.504)">
      <path id="Path_23" data-name="Path 23" d="M100.285,13.773,95.908,37.707l4.377,23.933,4.375-23.933Z" transform="translate(-76.351 -13.773)" fill="#e1cd8d"/>
      <path id="Path_24" data-name="Path 24" d="M81.976,30.823,105.91,35.2l23.931-4.375" transform="translate(-81.976 -6.889)" fill="#e1cd8d"/>
      <path id="Path_25" data-name="Path 25" d="M129.841,32.082,105.91,27.705,81.976,32.082" transform="translate(-81.976 -8.148)" fill="#e1cd8d"/>
    </g>
    <g id="Group_19" data-name="Group 19" transform="translate(158.548 16.073)">
      <path id="Path_26" data-name="Path 26" d="M123.711,12.753,122,22.136l1.715,9.381,1.714-9.381Z" transform="translate(-114.33 -12.753)" fill="#e1cd8d"/>
      <path id="Path_27" data-name="Path 27" d="M116.535,19.437l9.381,1.715,9.381-1.715" transform="translate(-116.535 -10.054)" fill="#e1cd8d"/>
      <path id="Path_28" data-name="Path 28" d="M135.3,19.93l-9.381-1.715-9.381,1.715" transform="translate(-116.535 -10.548)" fill="#e1cd8d"/>
    </g>
  </g>
</svg>
