<?xml version="1.0" encoding="utf-8"?>
<!-- Generator: Adobe Illustrator 16.0.0, SVG Export Plug-In . SVG Version: 6.00 Build 0)  -->
<!DOCTYPE svg PUBLIC "-//W3C//DTD SVG 1.1//EN" "http://www.w3.org/Graphics/SVG/1.1/DTD/svg11.dtd">
<svg version="1.1" id="圖層_1" xmlns="http://www.w3.org/2000/svg" xmlns:xlink="http://www.w3.org/1999/xlink" x="0px" y="0px"
	 width="115.739px" height="121.832px" viewBox="0 0 115.739 121.832" enable-background="new 0 0 115.739 121.832"
	 xml:space="preserve">
<g>
	<g>
		<path fill="#DCC88B" d="M42.041,44.869c2.812-15.151,6.76-30.03,11.838-44.58c-1.337,0.509-2.674,1.019-4.012,1.528
			c9.427,10.591,16.761,22.68,21.892,35.894c0.178,0.458,2.035-0.345,2.195-0.406c7.051-2.703,14.406-4.492,21.918-5.285
			c2.877-0.304,5.77-0.469,8.664-0.488c2.967-0.021,7.086-0.71,7.111,3.214c0.035,5.166-2.676,11.483-4.744,16.124
			c-2.348,5.269-5.396,10.127-9.01,14.617c0.09-0.111,3.209-0.418,3.986-1.385c4.521-5.618,8.148-11.852,10.637-18.628
			c1.105-3.007,5.869-13.812,1.229-15.621c-2.457-0.958-6.422-0.229-9.059-0.119c-3.799,0.159-7.59,0.567-11.338,1.191
			c-6.775,1.129-13.344,3.064-19.75,5.521c0.732-0.135,1.463-0.271,2.195-0.406c-5.129-13.214-12.465-25.303-21.89-35.894
			C53.361-0.465,50.126,1,49.892,1.674c-5.079,14.549-9.026,29.428-11.839,44.579C37.976,46.672,41.86,45.842,42.041,44.869
			L42.041,44.869z"/>
	</g>
	<g>
		<path fill="#DCC88B" d="M41.829,43.158c-13.609,1.58-26.994,4.394-40.103,8.373c-0.64,0.194-2.023,1.002-1.669,1.883
			c2.107,5.235,6.857,7.927,11.894,9.911c7.889,3.107,15.995,5.741,23.979,8.592c1.779,0.635,4.325,0.885,5.126,2.875
			c0.66,1.64,0.02,5.029,0.026,6.818c0.016,4.262,0.032,8.523,0.048,12.785c0.033,8.807,0.066,17.613,0.1,26.42
			c0.006,1.656,2.745,0.932,3.492,0.309c11.431-9.551,20.96-20.928,28.351-33.861c-1.191,0.403-2.383,0.807-3.574,1.209
			c12.98,6.195,26.314,11.55,39.975,16.047c1.131,0.371,4.021-0.186,3.654-1.902c-2.783-13.053-5.916-25.564-11.24-37.849
			c-0.693-1.603-4.803-0.134-4.139,1.4c5.324,12.284,8.457,24.796,11.24,37.849c1.219-0.634,2.438-1.268,3.654-1.901
			c-13.66-4.497-26.996-9.851-39.975-16.046c-1.16-0.554-2.955,0.127-3.574,1.209c-7.082,12.393-16.197,23.355-27.153,32.51
			c1.164,0.102,2.328,0.204,3.492,0.307c-0.06-15.91-0.12-31.818-0.18-47.729c-0.001-0.35-0.153-0.711-0.517-0.841
			c-8.053-2.874-16.105-5.749-24.158-8.623c-6.161-2.199-13.705-4.235-16.383-10.889c-0.557,0.628-1.113,1.255-1.669,1.883
			c12.742-3.868,25.748-6.55,38.974-8.085C43.698,45.557,44.72,42.822,41.829,43.158L41.829,43.158z"/>
	</g>
	<g>
		<path fill="#DCC88B" d="M49.656,17.347c3.018-3.132,6.379-5.84,10.096-8.103c0.269-0.164-2.949-2.303-3.834-1.765
			c-3.795,2.311-7.244,5.067-10.328,8.268C45.491,15.85,48.905,18.125,49.656,17.347L49.656,17.347z"/>
	</g>
	<g>
		<path fill="#DCC88B" d="M42.765,25.535c2.903,1.462,4.851,0.458,7.448-1.221c4.591-2.968,9.183-5.936,13.774-8.903
			c-1.316-0.272-2.631-0.545-3.947-0.817c-0.327,0.33-0.654,0.661-0.982,0.991c-0.528,0.534,3.314,1.533,4.177,0.663
			c0.328-0.33,0.656-0.66,0.982-0.99c0.678-0.683-3.282-1.247-3.946-0.817c-2.87,1.855-5.739,3.709-8.608,5.564
			c-2.607,1.686-5.344,4.033-8.251,5.118c1.255,0.085,2.509,0.171,3.764,0.256c-0.199-0.101-0.399-0.201-0.599-0.302
			c-0.809-0.407-2.065-0.721-2.965-0.457C43.34,24.699,41.833,25.065,42.765,25.535L42.765,25.535z"/>
	</g>
	<g>
		<path fill="#DCC88B" d="M44.711,35.315c3.563-1.194,6.804-3.376,10.076-5.189c4.236-2.347,8.473-4.694,12.709-7.042
			c-1.33-0.303-2.66-0.606-3.99-0.909c-0.242,0.291-0.482,0.582-0.725,0.873c-1.346,0.631,2.6,1.786,3.645,1.296
			c1.127-0.528,1.072-0.457,1.418-1.647c0.346-1.199-3.434-1.218-3.992-0.909c-3.738,2.071-7.475,4.142-11.213,6.213
			c-3.489,1.933-7.056,4.488-10.852,5.76C39.649,34.479,43.66,35.668,44.711,35.315L44.711,35.315z"/>
	</g>
	<g>
		<path fill="#DCC88B" d="M42.735,46.039c4.591-1.812,8.703-5.167,12.827-7.833c5.064-3.274,10.126-6.548,15.191-9.822
			c2.279-1.474-0.766-4.209-2.754-3.172c-0.344,0.179-0.688,0.358-1.031,0.538c-2.326,1.214,0.711,4.238,2.754,3.172
			c0.344-0.179,0.688-0.358,1.031-0.538c-0.918-1.058-1.836-2.115-2.754-3.172c-4.582,2.962-9.163,5.924-13.744,8.887
			c-4.234,2.738-8.653,6.497-13.356,8.353C38.326,43.466,40.522,46.912,42.735,46.039L42.735,46.039z"/>
	</g>
	<g>
		<path fill="#DCC88B" d="M42.191,42.613c-9.776,6.089-19.852,11.642-30.222,16.653c-1.977,0.956,1.041,4.09,2.845,3.218
			c10.37-5.011,20.445-10.564,30.221-16.653C46.946,44.641,43.896,41.551,42.191,42.613L42.191,42.613z"/>
	</g>
	<g>
		<path fill="#DCC88B" d="M4.231,56c0.186,1.156,1.049,2.334,2.255,2.622c1.371,0.327,2.493-0.697,3.525-1.443
			c3.344-2.416,6.351-5.252,10.443-6.322c2.152-0.563,0.058-4.368-1.872-3.864c-2.476,0.647-4.659,1.853-6.734,3.331
			c-1.759,1.253-4.207,4.071-6.349,4.471c0.449,0.081,0.898,0.162,1.347,0.243c-0.133-0.076-0.267-0.153-0.401-0.229
			c0.442,0.587,0.884,1.175,1.326,1.762c-0.022-0.141-0.045-0.281-0.068-0.422C7.357,53.983,3.779,53.184,4.231,56L4.231,56z"/>
	</g>
	<g>
		<path fill="#DCC88B" d="M28.495,67.729c15.231-11.162,30.463-22.323,45.694-33.484c1.65-1.209-1.752-3.511-3.109-2.757
			c-0.5,0.279-1.002,0.558-1.504,0.836c-2.117,1.176,1.117,3.895,2.756,2.984c0.502-0.278,1.004-0.557,1.506-0.836
			c-1.037-0.919-2.072-1.838-3.109-2.757C55.497,42.875,40.265,54.037,25.034,65.198C23.344,66.437,26.951,68.859,28.495,67.729
			L28.495,67.729z"/>
	</g>
	<g>
		<path fill="#DCC88B" d="M41.987,70.351c8.99-8.699,17.98-17.398,26.971-26.097c0.961-0.929,8.842-7.704,7.639-8.477
			c-0.604-0.387-3.207,2.018-3.641,2.455c-0.1,0.066-0.16,0.153-0.182,0.263c0.041,0.057,0.08,0.115,0.119,0.172
			c0.186,0.269,3.787-2.204,3.592-2.487c-0.023-0.046-0.047-0.093-0.07-0.14c-1.137,0.741-2.273,1.482-3.41,2.224
			c0.324,0.08-6.227,6.933-7.277,7.951c-3.066,2.965-6.13,5.931-9.196,8.896c-5.925,5.734-11.851,11.467-17.776,17.201
			c-0.629,0.609,0.735-0.15,0.82-0.193C40.425,71.69,41.3,71.015,41.987,70.351L41.987,70.351z"/>
	</g>
	<g>
		<path fill="#DCC88B" d="M45.537,79.231c16.242-15.815,32.486-31.631,48.728-47.446c1.611-1.569-1.752-1.45-2.562-1.011
			c-0.469,0.255-0.939,0.509-1.408,0.764c-2.578,1.397-0.084,2.545,1.727,1.564c0.471-0.254,0.939-0.509,1.41-0.764
			c-0.855-0.337-1.709-0.674-2.562-1.011C74.626,47.143,58.384,62.958,42.142,78.772C40.424,80.445,44.582,80.161,45.537,79.231
			L45.537,79.231z"/>
	</g>
	<g>
		<path fill="#DCC88B" d="M45.48,87.193c22.89-15.569,42.665-35.005,62.278-54.407c1.123-1.11-2.299-3.783-3.553-2.542
			c-19.459,19.247-39.062,38.52-61.771,53.964C40.883,85.265,44.16,88.092,45.48,87.193L45.48,87.193z"/>
	</g>
	<g>
		<path fill="#DCC88B" d="M41.813,94.93c-0.089,0.131-0.178,0.261-0.267,0.392c-0.081,0.145-0.06,0.272,0.065,0.383
			c0.113,0.151,0.225,0.304,0.338,0.455c0.342,0.462,1.729,0.258,2.166,0.177c2.335-0.433,3.371-1.634,5.098-3.3
			c2.588-2.498,5.143-5.041,7.936-7.314c5.973-4.859,12.954-8.262,18.877-13.203c12.912-10.771,24.844-22.934,37.145-34.396
			c0.988-0.922-3.062-0.825-3.844-0.097C97.966,48.615,86.763,59.412,75.208,69.789c-5.213,4.682-10.994,8.25-16.802,12.116
			c-3.053,2.032-5.881,4.278-8.576,6.764c-1.134,1.046-2.24,2.123-3.351,3.195c-0.738,0.717-1.478,1.434-2.219,2.147
			c-1.426,1.003-1.555,1.3-0.388,0.888c0.722,0.059,1.444,0.117,2.166,0.176c-0.002-0.154-0.004-0.311-0.006-0.465
			C46.439,94.013,42.52,93.894,41.813,94.93L41.813,94.93z"/>
	</g>
	<g>
		<path fill="#DCC88B" d="M46.557,105.71c21.776-19.137,43.551-38.275,65.327-57.413c0.195-0.172-3.316-1.731-4.086-1.056
			c-21.775,19.138-43.551,38.275-65.326,57.414C42.276,104.827,45.789,106.386,46.557,105.71L46.557,105.71z"/>
	</g>
	<g>
		<path fill="#DCC88B" d="M44.48,114.456c3.854-3.385,8.058-6.205,11.782-9.767c4.159-3.979,8.295-7.981,12.444-11.972
			c1.652-1.591-2.492-1.021-3.334-0.211c-4.149,3.991-8.286,7.994-12.445,11.973c-3.72,3.558-7.933,6.385-11.782,9.767
			C39.44,115.744,43.612,115.219,44.48,114.456L44.48,114.456z"/>
	</g>
	<g>
		<path fill="#DCC88B" d="M78.259,90.353c8.76-6.478,14.256-16.281,23.09-22.675c1.238-0.896-1.369-4.401-2.639-3.482
			c-8.834,6.394-14.33,16.197-23.09,22.675C74.386,87.784,77.003,91.282,78.259,90.353L78.259,90.353z"/>
	</g>
	<g>
		<path fill="#DCC88B" d="M86.31,94.495c0.029-0.035,0.057-0.069,0.086-0.104c-0.465,0.011-0.928,0.021-1.393,0.032
			c0.059,0.029,0.119,0.061,0.178,0.091c-0.406-1.073-0.811-2.146-1.217-3.22c-0.01,0.044-0.021,0.088-0.031,0.132
			c-0.289,1.165,1.01,4.608,2.607,3.188c5.771-5.135,11.369-10.448,16.826-15.917c1.184-1.186-1.02-4.922-2.418-3.52
			c-5.457,5.469-11.055,10.782-16.826,15.917c0.869,1.062,1.738,2.125,2.607,3.188c0.01-0.044,0.021-0.088,0.033-0.132
			c0.258-1.048-0.164-2.678-1.217-3.219c-0.059-0.031-0.117-0.061-0.176-0.091c-0.447-0.23-1-0.45-1.393,0.031
			c-0.027,0.034-0.057,0.069-0.086,0.104C82.821,92.29,85.097,95.985,86.31,94.495L86.31,94.495z"/>
	</g>
	<g>
		<path fill="#DCC88B" d="M93.917,95.735c4.402-4.24,9.211-8.289,12.771-13.291c-1.332-0.084-2.664-0.17-3.996-0.256
			c-0.275,0.447-0.553,0.893-0.828,1.338c-1.146,1.852,3.127,1.656,3.994,0.256c0.277-0.445,0.553-0.892,0.83-1.338
			c0.557-0.9-0.523-1.447-1.252-1.531c-1.059-0.123-2.145,0.435-2.744,1.275c-3.365,4.729-8.102,8.58-12.26,12.588
			c-0.736,0.709-0.281,1.485,0.514,1.805C91.903,96.967,93.229,96.397,93.917,95.735L93.917,95.735z"/>
	</g>
	<g>
		<path fill="#DCC88B" d="M100.741,100.189c0.5-1.331,0.033-2.509-0.65-3.694c0.127,0.96,0.254,1.92,0.381,2.881
			c1.895-0.807,2.299-2.887,3.715-4.188c1.678-1.542,3.338-2.126,2.828-4.778c-0.086,0.439-0.172,0.881-0.258,1.32
			c-0.021,0.01-0.041,0.02-0.062,0.029c-0.482-0.682-0.963-1.363-1.445-2.045c0.033,0.082,0.064,0.163,0.098,0.244
			c0.246,0.624,0.871,2.178,1.738,2.149c0.859-0.028,0.562-1.39,0.373-1.867c-0.453-1.144-1.137-2.663-2.576-2.456
			c-0.461,0.066-0.305,1.082-0.258,1.32c0.158,0.828-2.66,2.346-3.205,3.041c-0.916,1.17-1.367,2.664-2.824,3.284
			c-0.92,0.392,0.139,2.458,0.383,2.881c0.059,0.103,0.117,0.204,0.176,0.306c-0.232-0.674-0.467-1.348-0.699-2.021
			c0.012,0,0.023,0,0.033,0.002c-0.334,0.887,0.084,1.941,0.57,2.704C99.214,99.546,100.423,101.035,100.741,100.189
			L100.741,100.189z"/>
	</g>
</g>
</svg>
