<?xml version="1.0" encoding="utf-8"?>
<!-- Generator: Adobe Illustrator 16.0.0, SVG Export Plug-In . SVG Version: 6.00 Build 0)  -->
<!DOCTYPE svg PUBLIC "-//W3C//DTD SVG 1.1//EN" "http://www.w3.org/Graphics/SVG/1.1/DTD/svg11.dtd">
<svg version="1.1" id="圖層_1" xmlns="http://www.w3.org/2000/svg" xmlns:xlink="http://www.w3.org/1999/xlink" x="0px" y="0px"
	 width="131.01px" height="131.09px" viewBox="0 0 131.01 131.09" enable-background="new 0 0 131.01 131.09" xml:space="preserve">
<g>
	<g>
		<path fill="#DCC88B" d="M9.273,39.35c22.116-1.205,44.302,0.081,66.129,3.849c0.593,0.103,0.848-0.805,0.25-0.908
			c-21.91-3.783-44.177-5.092-66.379-3.883C8.67,38.44,8.666,39.382,9.273,39.35L9.273,39.35z"/>
	</g>
	<g>
		<path fill="#DCC88B" d="M26.865,54.898c-0.417,0.083-0.835,0.167-1.252,0.25c0.069,0.262,0.139,0.524,0.208,0.787
			c11.201-11.657,22.402-23.314,33.604-34.971c0.42-0.438-0.245-1.104-0.666-0.666C47.558,31.955,36.356,43.612,25.155,55.27
			c-0.241,0.251-0.142,0.695,0.208,0.787c0.948,0.249,1.413,0.123,2.168-0.492C28.001,55.182,27.331,54.519,26.865,54.898
			L26.865,54.898z"/>
	</g>
	<g>
		<path fill="#DCC88B" d="M33.193,23.767c-0.137,3.021,1.737,5.369,3.362,7.751c2.184,3.2,4.366,6.399,6.55,9.599
			c4.453,6.528,8.907,13.056,13.36,19.583c0.34,0.498,1.156,0.027,0.813-0.475c-4.104-6.016-8.209-12.032-12.312-18.047
			c-2.009-2.944-4.018-5.888-6.026-8.832c-1.894-2.776-4.966-6.021-4.805-9.58C34.163,23.161,33.221,23.162,33.193,23.767
			L33.193,23.767z"/>
	</g>
	<g>
		<path fill="#DCC88B" d="M38.878,74.002c4.58-24.294,7.566-48.865,8.936-73.549c0.033-0.606-0.908-0.604-0.942,0
			c-1.363,24.601-4.336,49.086-8.901,73.298C37.857,74.344,38.766,74.598,38.878,74.002L38.878,74.002z"/>
	</g>
	<g>
		<path fill="#DCC88B" d="M25.038,29.505c12.939,7.887,26.014,15.548,39.219,22.981c0.529,0.298,1.004-0.516,0.476-0.813
			C51.527,44.24,38.453,36.579,25.514,28.691C24.995,28.375,24.521,29.189,25.038,29.505L25.038,29.505z"/>
	</g>
	<g>
		<path fill="#DCC88B" d="M21.41,45.701c-0.571,0.166-1.142,0.331-1.713,0.496c0.079,0.292,0.158,0.585,0.237,0.877
			c8.043-3.513,16.718-4.862,25.247-6.657c8.241-1.734,16.1-4.254,23.527-8.269c0.533-0.288,0.059-1.102-0.475-0.813
			c-7.879,4.258-16.209,6.73-24.944,8.513c-8.086,1.65-16.223,3.089-23.83,6.413c-0.432,0.188-0.209,0.902,0.237,0.877
			c0.854-0.047,1.441-0.213,2.188-0.624C22.416,46.222,21.941,45.408,21.41,45.701L21.41,45.701z"/>
	</g>
	<g>
		<path fill="#DCC88B" d="M41.97,52.681c-0.238,0.223-0.477,0.446-0.716,0.669c0.263,0.152,0.525,0.305,0.787,0.458
			c2.38-12.208,4.818-24.486,9.699-35.986c0.234-0.552-0.576-1.032-0.812-0.476C46.011,28.93,43.53,41.26,41.133,53.558
			c-0.088,0.456,0.43,0.792,0.787,0.458c0.239-0.223,0.478-0.446,0.716-0.668C43.079,52.932,42.412,52.267,41.97,52.681
			L41.97,52.681z"/>
	</g>
	<g>
		<path fill="#DCC88B" d="M45.461,58.777c-2.034-13.577-3.51-27.227-4.43-40.924c-0.041-0.602-0.982-0.606-0.941,0
			c0.925,13.781,2.416,27.515,4.463,41.175C44.642,59.625,45.55,59.371,45.461,58.777L45.461,58.777z"/>
	</g>
	<g>
		<path fill="#DCC88B" d="M29.146,60.805c1.988-7.267,7.99-12.093,13.244-17.057c5.634-5.324,10.289-11.435,13.802-18.354
			c0.274-0.539-0.538-1.017-0.813-0.476c-3.838,7.558-9.038,13.885-15.225,19.63c-4.933,4.579-10.079,9.292-11.916,16.006
			C28.078,61.14,28.986,61.39,29.146,60.805L29.146,60.805z"/>
	</g>
	<g>
		<path fill="#DCC88B" d="M76.596,105.375c17.236-6.735,35.197-11.408,53.531-13.925c0.598-0.082,0.343-0.99-0.251-0.908
			c-18.333,2.517-36.294,7.189-53.53,13.925C75.787,104.686,76.03,105.597,76.596,105.375L76.596,105.375z"/>
	</g>
	<g>
		<path fill="#DCC88B" d="M112.354,130.506c-6.58-25.15-13.776-50.134-21.584-74.931c-0.181-0.576-1.091-0.33-0.908,0.25
			c7.808,24.796,15.004,49.781,21.584,74.93C111.6,131.342,112.508,131.093,112.354,130.506L112.354,130.506z"/>
	</g>
	<g>
		<path fill="#DCC88B" d="M88.732,88.723c-0.276-0.337-0.553-0.675-0.829-1.012c-0.19,0.246-0.381,0.493-0.571,0.739
			c6.687,2.926,12.611,7.153,18.59,11.28c5.43,3.748,11.575,8.738,18.439,9.022c0.605,0.025,0.604-0.917,0-0.941
			c-7.086-0.294-13.691-5.933-19.295-9.817c-5.528-3.832-11.072-7.649-17.259-10.357c-0.492-0.215-0.92,0.312-0.57,0.74
			c0.276,0.337,0.553,0.675,0.829,1.012C88.45,89.858,89.113,89.188,88.732,88.723L88.732,88.723z"/>
	</g>
	<g>
		<path fill="#DCC88B" d="M95.237,116.988c-2.285-2.002,2.081-7.603,3.136-9.485c1.612-2.876,3.259-5.732,4.938-8.569
			c3.36-5.674,6.861-11.263,10.482-16.774c0.334-0.508-0.481-0.98-0.813-0.476c-4.443,6.764-8.704,13.646-12.752,20.655
			c-1.941,3.361-3.976,6.725-5.704,10.202c-0.818,1.647-1.547,3.716,0.047,5.113C95.025,118.052,95.694,117.389,95.237,116.988
			L95.237,116.988z"/>
	</g>
	<g>
		<path fill="#DCC88B" d="M115.485,111.712c-9.667-11.987-19.425-24.205-25.208-38.629c-0.223-0.556-1.134-0.313-0.908,0.25
			c5.849,14.587,15.673,26.922,25.45,39.045C115.199,112.85,115.862,112.18,115.485,111.712L115.485,111.712z"/>
	</g>
	<g>
		<path fill="#DCC88B" d="M91.503,107.813c10.862-10.318,23.98-17.946,38.32-22.283c0.579-0.175,0.332-1.084-0.25-0.908
			c-14.493,4.384-27.759,12.098-38.736,22.525C90.396,107.566,91.062,108.231,91.503,107.813L91.503,107.813z"/>
	</g>
	<g>
		<path fill="#DCC88B" d="M122.959,98.848c0.186,1.607-7.818,0.328-8.739,0.222c-3.265-0.374-6.516-0.858-9.755-1.409
			C98.49,96.646,92.56,95.4,86.631,94.155c-0.592-0.125-0.844,0.783-0.25,0.908c7.704,1.618,15.417,3.241,23.215,4.352
			c3.625,0.516,7.289,1.003,10.949,1.18c1.25,0.061,3.566,0.08,3.356-1.746C123.832,98.253,122.89,98.246,122.959,98.848
			L122.959,98.848z"/>
	</g>
	<g>
		<path fill="#DCC88B" d="M1.902,98.935c-0.395-0.167-0.79-0.334-1.185-0.502c-0.121,0.287-0.242,0.574-0.363,0.861
			c12.508,3.158,24.903,6.731,37.172,10.717c0.577,0.188,0.825-0.721,0.25-0.908c-12.269-3.986-24.664-7.56-37.171-10.717
			c-0.495-0.125-0.872,0.646-0.363,0.861c0.395,0.167,0.79,0.334,1.186,0.502C1.979,99.982,2.46,99.171,1.902,98.935L1.902,98.935z"
			/>
	</g>
	<g>
		<path fill="#DCC88B" d="M23.748,123.042c-5.87-15.431-10.824-31.189-14.838-47.204c-0.147-0.587-1.056-0.339-0.908,0.25
			c4.014,16.014,8.968,31.773,14.838,47.203C23.053,123.853,23.964,123.61,23.748,123.042L23.748,123.042z"/>
	</g>
	<g>
		<path fill="#DCC88B" d="M5.72,109.385c9.852-4.782,19.955-9.004,30.28-12.653c0.567-0.2,0.323-1.11-0.251-0.908
			c-10.401,3.676-20.58,7.93-30.505,12.748C4.699,108.837,5.176,109.649,5.72,109.385L5.72,109.385z"/>
	</g>
	<g>
		<path fill="#DCC88B" d="M26.102,113.493c-5.582-7.335-11.634-14.507-16.692-22.216c-0.331-0.505-1.146-0.033-0.812,0.476
			c5.058,7.709,11.109,14.881,16.691,22.216C25.65,114.444,26.469,113.976,26.102,113.493L26.102,113.493z"/>
	</g>
	<g>
		<path fill="#DCC88B" d="M11.105,113.869c-0.439-0.599,0.015-2.334,0.317-2.978c0.209-0.445,0.562-0.873,0.839-1.278
			c0.694-1.02,1.429-2.014,2.203-2.975c1.36-1.687,2.837-3.278,4.413-4.765c3.228-3.043,6.863-5.575,10.79-7.63
			c0.537-0.281,0.062-1.094-0.476-0.813c-4.903,2.566-9.358,5.896-13.138,9.946c-1.766,1.893-3.38,3.928-4.818,6.08
			c-0.977,1.46-2.15,3.248-0.943,4.89C10.648,114.828,11.466,114.358,11.105,113.869L11.105,113.869z"/>
	</g>
	<g>
		<path fill="#DCC88B" d="M30.865,111.548c-0.229-2.213-2.49-3.059-4.224-4.039c-2.675-1.514-5.377-2.98-8.049-4.501
			c-5.63-3.205-11.101-6.678-15.808-11.164c-0.439-0.418-1.106,0.247-0.666,0.666c3.886,3.703,8.285,6.75,12.883,9.5
			c2.294,1.371,4.629,2.67,6.965,3.968c1.284,0.714,2.57,1.426,3.851,2.147c1.335,0.752,3.928,1.697,4.105,3.422
			C29.984,112.145,30.927,112.151,30.865,111.548L30.865,111.548z"/>
	</g>
</g>
</svg>
