<svg enable-background="new 0 0 477 78" viewBox="0 0 477 78" xmlns="http://www.w3.org/2000/svg"><g fill="#e1cd8d"><path d="m457 20c0 13.3-6.7 20-20 20 13.3 0 20 6.7 20 20 0-13.3 6.7-20 20-20-13.3 0-20-6.7-20-20z"/><path d="m20 20c0 13.3-6.7 20-20 20 13.3 0 20 6.7 20 20 0-13.3 6.7-20 20-20-13.3 0-20-6.7-20-20z"/><path d="m61.3 18h25.1v8.6h-16.4v8.3h16.4v8.4h-16.4v12.1h16.4v8.6h-25.1z"/><path d="m91.5 18h9.8l9.7 14.8 9.7-14.8h9.8l-14.5 22.3 15.5 23.7h-9.8l-10.6-16.2-10.6 16.2h-9.9l15.5-23.7z"/><path d="m138 18h9.3c5 0 8.6.5 10.9 1.4 2.2.9 4 2.4 5.2 4.5 1.3 2.1 1.9 4.6 1.9 7.5 0 3.2-.8 5.9-2.5 8s-4 3.6-6.8 4.4c-1.7.5-4.8.7-9.2.7v19.5h-8.8zm8.8 18h2.8c2.2 0 3.7-.2 4.6-.5s1.5-.8 2-1.6c.5-.7.7-1.6.7-2.6 0-1.8-.7-3.1-2.1-3.9-1-.6-2.9-.9-5.6-.9h-2.5v9.5z"/><path d="m173.9 18h25.1v8.6h-16.4v8.3h16.4v8.4h-16.4v12.1h16.4v8.6h-25.1z"/><path d="m207.8 18h9.3c5.1 0 8.7.5 10.8 1.4s3.9 2.4 5.2 4.5 2 4.6 2 7.5c0 3-.7 5.5-2.2 7.6s-3.6 3.6-6.5 4.6l10.8 20.4h-9.6l-10.3-19.5h-.8v19.5h-8.8v-46zm8.7 18h2.7c2.8 0 4.7-.4 5.7-1.1s1.6-1.9 1.6-3.6c0-1-.3-1.9-.8-2.6s-1.2-1.3-2.1-1.6-2.5-.5-4.8-.5h-2.4v9.4z"/><path d="m243.7 18h8.7v46h-8.7z"/><path d="m262.2 18h25.1v8.6h-16.4v8.3h16.4v8.4h-16.4v12.1h16.4v8.6h-25.1z"/><path d="m295.5 18h8.4l19.7 30.2v-30.2h8.8v46h-8.4l-19.6-30.2v30.2h-8.8v-46z"/><path d="m385.1 26.1-6.1 5.8c-4.2-4.4-8.8-6.6-14.1-6.6-4.4 0-8.1 1.5-11.1 4.5s-4.5 6.7-4.5 11.1c0 3.1.7 5.8 2 8.2s3.2 4.2 5.7 5.6 5.1 2 8.1 2c2.5 0 4.9-.5 7-1.4s4.4-2.7 6.9-5.2l5.9 6.2c-3.4 3.3-6.6 5.6-9.6 6.9s-6.5 1.9-10.3 1.9c-7.1 0-13-2.3-17.5-6.8-4.6-4.5-6.8-10.3-6.8-17.4 0-4.6 1-8.7 3.1-12.2 2.1-3.6 5-6.4 8.9-8.6s8-3.2 12.5-3.2c3.8 0 7.4.8 11 2.4 3.3 1.6 6.4 3.9 8.9 6.8z"/><path d="m392.8 18h25.1v8.6h-16.4v8.3h16.4v8.4h-16.4v12.1h16.4v8.6h-25.1z"/></g></svg>