<svg xmlns="http://www.w3.org/2000/svg" width="611.5" height="121.015" viewBox="0 0 611.5 121.015">
  <g id="works" transform="translate(-112.727 -516.5)">
    <path id="Path_2778" data-name="Path 2778" d="M224.37,596.381c4.606-.13,16.931-44.116,27.887-53.986,7.53-6.784,20.417-5.195,23.9,17.662s1.992,42.6,4.98,43.115,20.646-38.052,25.728-51.08c4.873-12.491,11.62-13.652,16.6-10.895s11.951,5.873,8.466,14.7-25.4,49.348-31.372,58.7-13.445,19.815-23.9,18.257-13.943-4.308-19.919-56.254c0,0-12.947,31.764-19.421,42.152s-16.433,18.662-24.9,8.793-12.449-35.8-14.939-51.388-4.98-40.518-4.98-40.518,20.915-10.909,22.907,4.156S219.764,596.51,224.37,596.381Z" transform="translate(-0.323 0.009)" fill="none" stroke="#dcc88b" stroke-linejoin="round" stroke-width="7"/>
    <path id="Path_2779" data-name="Path 2779" d="M380.462,563.669s17.927,8.339,15.271,31.022-16.267,35.281-33.2,35.486-34.195-12.47-32.2-30.15S348.592,552.994,380.462,563.669Z" transform="translate(-0.881 0.03)" fill="none" stroke="#dcc88b" stroke-linejoin="round" stroke-width="7"/>
    <path id="Path_2780" data-name="Path 2780" d="M360.966,582.667c1,.333,11.951-1.335,13.279,8.006s-3.651,17.178-11.066,18.013c-7.156.8-10.512-3.837-10.512-9.674S356.1,585.589,363.179,585" transform="translate(-0.972 0.045)" fill="none" stroke="#dcc88b" stroke-linecap="round" stroke-linejoin="round" stroke-width="7"/>
    <path id="Path_2781" data-name="Path 2781" d="M427.905,565.01s-1.328-14.677-7.968-13.677-15.271,8.673-15.271,8.673a39.433,39.433,0,0,1,8.631,27.019c-1,16.345-2.324,32.356-4.647,40.029s19.586,6.265,20.251,3.132-1-29.559,3.652-39.2,9.627-15.64,17.594-15.64,14.276,11.008,13.28,23.016l16.267-2.574s1.66-26.113-14.939-36.787S435.209,558,427.905,565.01Z" transform="translate(-1.183 0.022)" fill="none" stroke="#dcc88b" stroke-linejoin="round" stroke-width="7"/>
    <path id="Path_2782" data-name="Path 2782" d="M486,631.786s13.612-83.218,12.283-106.861c0,0,21.911-9.07,21.579-2.592S513.887,568,513.887,568l31.87-25.265s14.275-11.66,20.915,6.154c0,0-25.23,25.264-48.8,38.545L552.4,611.406s9.627,5.83,5.311,12.308-9.628,8.1-17.6,3.564-30.21-23.645-30.21-23.645l-3.652,23S505.587,638.887,486,631.786Z" transform="translate(-1.513)" fill="none" stroke="#dcc88b" stroke-linejoin="round" stroke-width="7"/>
    <path id="Path_2783" data-name="Path 2783" d="M638.709,573.708s13.279-6.671,8.964-13.342-13.612-15.882-32.2-17.788S584.541,550.2,580.944,559.1c-3.984,9.847-.212,24.185,19.255,31.446,19.587,7.306,15.535,17.084,10.955,21.283-7.968,7.305-20.656,5.182-32.266-6.035-6.576-6.354-15.193,4.47-10.227,12.388,2.988,4.764,11.619,15.726,32.2,15.8s29.214-9.452,33.2-17.71,3.13-24.662-9.3-31.766c-12.9-7.376-24.9-10.8-21.247-19.059C606.921,557.754,622.11,556.238,638.709,573.708Z" transform="translate(-1.841 0.016)" fill="none" stroke="#dcc88b" stroke-linejoin="round" stroke-width="7"/>
    <path id="Path_2785" data-name="Path 2785" d="M674.058,596.244c1.491,2.063,3.136,3.58,3.139,6.138-1.642.147-2.586-1.505-4.255-1.662-.078,1.278-.17,2.418-.209,3.559a15.51,15.51,0,0,0,.025,2.756c.362,2.451-.515,4.659-1.1,6.924-.042.165-.4.239-.764.437a15.038,15.038,0,0,1-1.663-7.88,12.685,12.685,0,0,0-1.07-6.32c-1.078,1.271-1.952,2.355-2.885,3.379a1.014,1.014,0,0,1-1.705-.66A5.4,5.4,0,0,1,663.66,601a19.036,19.036,0,0,1,1.014-2.54c.291-.667,1.375-.8,1.056-2.092-2.421-.241-4.96.8-7.676.139.711-2.037,2.307-2.262,3.575-2.915,1.185-.61,2.782-.193,3.7-1.75-.453-1.461-2.159-2.652-1.262-4.592,1.854-.49,2.579,1.608,4.019,2.179.633-2.871-.214-5.929,1.766-8.51,3.053,2.114,1.872,5.337,2.368,7.925,1.016.567,1.746-.116,2.483-.509.995-.53,1.907-1.234,2.9-1.769a.948.948,0,0,1,.939.239,1.247,1.247,0,0,1-.072,1.067c-.85,1.277-1.769,2.5-2.736,3.843,1.324,1.407,3.782.02,4.481,2.524C678.865,596.384,676.435,595.369,674.058,596.244Z" transform="translate(-2.21 0.044)" fill="#dcc88b" fill-rule="evenodd"/>
    <path id="Path_2786" data-name="Path 2786" d="M714.817,585.553c2.48,3.431,5.217,5.954,5.22,10.209-2.731.245-4.3-2.5-7.075-2.764-.13,2.126-.307,10.5-.307,10.5s-.187,7.051-3.106,7.051-3.366-9.018-3.366-9.018.372-5.763-1.178-9.406c-1.793,2.114-3.247,3.917-4.8,5.62a1.687,1.687,0,0,1-2.835-1.1,8.94,8.94,0,0,1,.154-3.191,31.546,31.546,0,0,1,1.685-4.223c.484-1.11,2.288-1.331,1.756-3.48-4.026-.4-8.248,1.333-12.766.232,1.183-3.389,3.836-3.762,5.947-4.849,1.971-1.015,4.627-.322,6.153-2.911-.753-2.43-3.59-4.411-2.1-7.637,3.084-.816,4.289,2.674,6.683,3.624,1.055-4.775-.356-9.863,2.938-14.156,5.076,3.517,3.113,8.877,3.939,13.182,1.689.943,2.9-.193,4.129-.849,1.654-.882,3.173-2.052,4.823-2.942a1.576,1.576,0,0,1,1.563.4,2.074,2.074,0,0,1-.12,1.774c-1.413,2.124-2.941,4.16-4.549,6.392,2.2,2.34,6.289.033,7.453,4.2C722.812,585.786,718.77,584.1,714.817,585.553Z" transform="translate(-2.332 0.029)" fill="none" stroke="#dcc88b" stroke-linejoin="round" stroke-width="3" fill-rule="evenodd"/>
    <g id="Group_2503" data-name="Group 2503" transform="translate(112.727 545.303)">
      <path id="Path_2788" data-name="Path 2788" d="M152.915,610.808a3.143,3.143,0,0,1-2.448-2.708c-.352-1.9-.536-3.831-.793-5.748a6.965,6.965,0,0,0-.268-1.677,31.838,31.838,0,0,0-4.871-7.954c-1.815-2.264-4.419-3.2-7.361-3.484a13.175,13.175,0,0,1-2.546-.3,2.294,2.294,0,0,1-1.23-1.12,1.332,1.332,0,0,1,.773-1.742,9.235,9.235,0,0,1,2.068-.624,29.1,29.1,0,0,0,3.579-.837,10.281,10.281,0,0,0,4.975-3.895c1.725-2.482,2.291-5.262,3.363-7.908-.43-2.3.555-4.5.581-6.774a9.158,9.158,0,0,1,.18-1.7A2.117,2.117,0,0,1,151,562.686a1.968,1.968,0,0,1,2.07,1.158,11.521,11.521,0,0,1,.669,1.936c.859,2.976,1.653,5.969,2.565,8.931a19.043,19.043,0,0,0,4.285,6.754,6.046,6.046,0,0,0,4.767,2.252,9.955,9.955,0,0,1,3.825,1.148,1.823,1.823,0,0,1,.737,1.423c.013.294-.6.641-.976.909a1.184,1.184,0,0,1-.706.172c-2.344-.165-3.886,1.215-5.443,2.469-1.4,1.125-2.631,2.421-4,3.581-3.271,2.769-4.285,6.283-4.11,10.23.071,1.6.023,3.2.057,4.792A2.448,2.448,0,0,1,152.915,610.808Zm-.91-33.8c-.54.591-.808.749-.833.934a9.9,9.9,0,0,1-4.237,6.628,9.2,9.2,0,0,0-2.946,3.4,18.005,18.005,0,0,1,7.176,7.132c.481-.364,1.168-.625,1.343-1.063a10.729,10.729,0,0,1,3.544-4.268c1.384-1.111,2.751-2.241,4.306-3.509C156.828,583.835,153.76,581.084,152,577.008Z" transform="translate(-112.81 -545.272)" fill="#dcc88b" fill-rule="evenodd"/>
      <path id="Path_2789" data-name="Path 2789" d="M121.006,586.714c-2.6,1.378-4.882,1.756-7.328.676a1.526,1.526,0,0,1-.946-1.674c.04-.721.263-1.515,1.074-1.587a14.585,14.585,0,0,1,4.372.094A4.588,4.588,0,0,1,121.006,586.714Z" transform="translate(-112.727 -545.257)" fill="#dcc88b" fill-rule="evenodd"/>
      <path id="Path_2790" data-name="Path 2790" d="M153.774,546.411c-.1-.43-.793-.891-1.316-1.058a1.711,1.711,0,0,0-1.879.812,2.384,2.384,0,0,0-.557,1.259c-.027,2.246-.35,4.587,2.117,6.641C154.418,551.576,154.385,549.02,153.774,546.411Z" transform="translate(-112.878 -545.285)" fill="#dcc88b" fill-rule="evenodd"/>
      <path id="Path_2791" data-name="Path 2791" d="M151.879,617.991a25.6,25.6,0,0,1,.873-3.241,1.19,1.19,0,0,1,2.068-.165,6.41,6.41,0,0,1,1.327,4.517c-.035,1.418-1.856,2.266-3.346,1.558a2.184,2.184,0,0,1-.941-1.308c-.114-.386.16-.87.262-1.309Z" transform="translate(-112.886 -545.235)" fill="#dcc88b" fill-rule="evenodd"/>
      <path id="Path_2792" data-name="Path 2792" d="M183.475,584.58c-.129.352-.155.745-.377.966a5.474,5.474,0,0,1-5.106.7c-.364-.2-.8-.688-.769-1a1.953,1.953,0,0,1,.773-1.394,5.7,5.7,0,0,1,4.918-.082C183.174,583.87,183.285,584.294,183.475,584.58Z" transform="translate(-112.989 -545.258)" fill="#dcc88b" fill-rule="evenodd"/>
    </g>
  </g>
</svg>
