<svg xmlns="http://www.w3.org/2000/svg" width="581" height="64" viewBox="0 0 581 64">
  <g id="msg_guestbook_" data-name="msg(guestbook)" transform="translate(-728 -2324)">
    <path id="_" data-name="*" d="M463.557,115.557q0,16-16,16,16,0,16,16,0-16,16-16-16,0-16-16Z" transform="translate(282.443 2223.443)" fill="none" stroke="#0e3150" stroke-linecap="round" stroke-linejoin="round" stroke-width="4"/>
    <path id="_2" data-name="*" d="M463.557,115.557q0,16-16,16,16,0,16,16,0-16,16-16-16,0-16-16Z" transform="translate(827.443 2223.443)" fill="none" stroke="#0e3150" stroke-linecap="round" stroke-linejoin="round" stroke-width="4"/>
    <text id="Guestbook留言吧" transform="translate(779 2379)" fill="#0e3150" font-size="64" font-family="NaikaiFont-Medium, NaikaiFont" font-weight="500"><tspan x="0" y="0">Guestbook留言吧</tspan></text>
    <path id="_3" data-name="&lt;3" d="M14.625-31.062a6.813,6.813,0,0,1-3.375-2.375,35.486,35.486,0,0,1-2.437-3.5,7.15,7.15,0,0,1-1.156-2.844A2.823,2.823,0,0,1,8.719-42a2.7,2.7,0,0,1,3.031-.437A6.572,6.572,0,0,1,15-39.5q1.688-2.812,3.906-2.562a4.036,4.036,0,0,1,2.875,1.156,2.394,2.394,0,0,1,.156,2.313,9.258,9.258,0,0,1-1.562,2.719A26.73,26.73,0,0,1,17.594-33,8.424,8.424,0,0,1,14.625-31.062Z" transform="translate(820.09 2379.169) rotate(3)" fill="#0e3150"/>
  </g>
</svg>
