<svg xmlns="http://www.w3.org/2000/svg" width="440" height="121.045" viewBox="0 0 440 121.045">
  <g id="skill" transform="translate(-285.537 -342.427)">
    <path id="Path_2765" data-name="Path 2765" d="M383.6,402.188s-17.789-10.843-18.777-28.587,15.812-28.587,33.6-27.6,33.107,13.308,35.083,24.151-1.977,12.815-3.953,13.8-6.665.09-14.824-9.858c-8.894-10.843-19.765-6.9-22.73-1.972s-1.977,13.8,10.871,20.7,25.695,19.715,22.73,36.473-23.718,28.587-45.46,23.658-34.589-29.573-28.659-35.488,14.824,0,20.753,7.886,16.8,11.829,24.706,6.9S403.86,411.552,383.6,402.188Z" transform="translate(-0.757)" fill="none" stroke="#0c304e" stroke-linejoin="round" stroke-width="7"/>
    <path id="Path_2766" data-name="Path 2766" d="M468.169,392.874l.988-33.516s.988-9.858-7.906-9.858-10.871,2.957-10.871,11.829-.988,57.174-6.918,75.9-2.965,21.687,3.953,22.673,19.765-6.9,19.765-23.658a126.137,126.137,0,0,0,21.742,14.786c12.847,6.9,22.73,6.9,25.695,2.957s1.977-11.829-8.894-17.744-26.683-12.815-32.612-18.73l27.671-24.644s16.8-11.829,6.918-21.687C498.75,362.261,482.993,382.03,468.169,392.874Z" transform="translate(-1.817 -0.051)" fill="none" stroke="#0c304e" stroke-linejoin="round" stroke-width="7"/>
    <path id="Path_2767" data-name="Path 2767" d="M550.32,366.5c-3.342-.013-12.847,4.929-14.824,14.786-.96,4.784-.134,13.274,5.93,14.786,3.953.986,8.619-.662,12.224-3.219s7.994-7.94,6.718-17.236c-.824-6-6.112-9.176-8-8.469" transform="translate(-2.931 -0.293)" fill="none" stroke="#0c304e" stroke-linecap="round" stroke-linejoin="round" stroke-width="7"/>
    <path id="Path_2768" data-name="Path 2768" d="M535.106,407.3s20.267-4.929,20.267,0-2.307,47.563-2.307,47.563,0,4.026-10.541,5.34-12.189-.493-11.859-5.34S530.651,426.36,535.106,407.3Z" transform="translate(-2.878 -0.842)" fill="none" stroke="#0c304e" stroke-linejoin="round" stroke-width="7"/>
    <path id="Path_2769" data-name="Path 2769" d="M581,451.872l2.965-98.9s23.389-8.214,23.389,6.572-3.295,48.631-1.977,65.06-.33,26.286-6.26,27.272S581,451.872,581,451.872Z" transform="translate(-3.47 -0.068)" fill="none" stroke="#0c304e" stroke-linejoin="round" stroke-width="7"/>
    <path id="Path_2770" data-name="Path 2770" d="M628.646,353.258s20.753-6.711,21.412,6.071,0,56.244,0,69.984,1.318,27.164-7.576,27.483-16.471-4.154-15.483-7.03S628.646,353.258,628.646,353.258Z" transform="translate(-4.009 -0.079)" fill="none" stroke="#0c304e" stroke-linejoin="round" stroke-width="7"/>
    <path id="Path_2771" data-name="Path 2771" stroke="#0c304e" d="M685.372,423.031c1.494,1.879,3.144,3.26,3.146,5.589-1.645.134-2.591-1.37-4.263-1.513-.078,1.164-.171,2.2-.21,3.24a12.82,12.82,0,0,0,.025,2.51c.362,2.232-.517,4.243-1.106,6.3-.042.15-.4.217-.766.4-1.111-2.284-1.97-4.518-1.666-7.174a10.624,10.624,0,0,0-1.072-5.755c-1.08,1.157-1.957,2.145-2.892,3.078a1.04,1.04,0,0,1-1.709-.6,4.467,4.467,0,0,1,.093-1.747,16.4,16.4,0,0,1,1.015-2.313c.292-.607,1.379-.729,1.058-1.9-2.425-.22-4.97.729-7.693.127.714-1.855,2.312-2.059,3.584-2.655,1.187-.556,2.787-.176,3.707-1.594-.454-1.331-2.163-2.415-1.264-4.182,1.858-.447,2.584,1.464,4.027,1.984.634-2.615-.214-5.4,1.77-7.75,3.059,1.925,1.876,4.86,2.373,7.217,1.018.516,1.75-.106,2.488-.464,1-.483,1.911-1.124,2.906-1.612a1.017,1.017,0,0,1,.941.219,1.04,1.04,0,0,1-.071.971c-.852,1.162-1.773,2.278-2.741,3.5,1.326,1.281,3.789.018,4.491,2.3C690.19,423.159,687.754,422.235,685.372,423.031Z" fill="none" transform="translate(-4.507 -0.899)" stroke-linecap="round" stroke-linejoin="round" stroke-width="3" fill-rule="evenodd"/>
    <g id="Group_2501" data-name="Group 2501" transform="translate(285.537 366.132)">
      <path id="Path_2772" data-name="Path 2772" d="M313.646,405.289a20.689,20.689,0,0,1-7.13,7.345c-.695-.386-.479-.878-.208-1.224,1.341-1.712,2.727-3.392,4.1-5.079.362-.446.742-.874,1.148-1.351a15.054,15.054,0,0,0-6.356-1.271,27.271,27.271,0,0,1-3.262-.069,2.614,2.614,0,0,1-1.239-.663,1.321,1.321,0,0,1,.164-2.157,3.9,3.9,0,0,1,1.688-.611c2.684.082,5.215-1.125,7.919-.845a7.2,7.2,0,0,0,1.874-.361c-1.9-3.426-5.542-5.46-5.989-9.336a.9.9,0,0,1,1.355-.379,6.06,6.06,0,0,1,2.408,2.123,19.49,19.49,0,0,0,2.5,3.112c.2.23.592.295,1.136.549a9.744,9.744,0,0,0,.247-1.445c.022-2.665.058-5.329,0-7.992a7.309,7.309,0,0,1,1.491-4.387,1.292,1.292,0,0,1,1.914-.031,7.487,7.487,0,0,1,1,1.909,12.6,12.6,0,0,1,.4,2.495c.244,2.607.454,5.219.714,8.257a7.632,7.632,0,0,0,1.265-1.207c.917-1.62,2.735-1.854,4.15-2.679.335-.2,1.175.156,1.589.491.55.449.317,1.168-.059,1.637-1.516,1.882-3.091,3.717-4.646,5.57-.284.34-.568.679-1.007,1.2,1.151.53,2.117.174,3.016.309.952.139,1.907.266,2.853.435a19.352,19.352,0,0,1,2.844.6c.887.3,1.9.541,2.353,1.78-2.98,1.946-6.36,1.837-9.637,1.788a1.428,1.428,0,0,0,.347,1.753,28.99,28.99,0,0,1,3.581,5.876,9.083,9.083,0,0,1,.455,1.361c-1.938-.214-3.033-.94-6.291-4.125-.165.315-.452.6-.426.855.265,2.63-.692,5.173-.4,7.847a22.777,22.777,0,0,1-.517,6.111,3.774,3.774,0,0,1-2.561,2.976c-.653-2.342-1.365-4.452-1.221-6.834a35.486,35.486,0,0,0-.526-5.366,26.618,26.618,0,0,1-.123-5.4A4.469,4.469,0,0,0,313.646,405.289Z" transform="translate(-285.709 -366.629)" fill="#0c304e" fill-rule="evenodd"/>
      <path id="Path_2773" data-name="Path 2773" d="M316.392,432.794c1.779,1.662,1.74,3.58,1.549,5.467a1.969,1.969,0,0,1-1.739,1.611,1.737,1.737,0,0,1-1.781-.971C312.92,436.48,313.3,435.247,316.392,432.794Z" transform="translate(-285.866 -367.369)" fill="#0c304e" fill-rule="evenodd"/>
      <path id="Path_2774" data-name="Path 2774" d="M289.026,403.743c-.49-.055-.73-.078-.969-.109-1.46-.19-2.539-1.112-2.519-2.151.022-1.084,1.517-2.325,2.872-2.289a4.5,4.5,0,0,1,3.235,1.412,1.586,1.586,0,0,1-.444,2.457A17.4,17.4,0,0,1,289.026,403.743Z" transform="translate(-285.537 -366.89)" fill="#0c304e" fill-rule="evenodd"/>
      <path id="Path_2775" data-name="Path 2775" d="M316.727,374a6.08,6.08,0,0,1-2.005-4.771,7.063,7.063,0,0,1,.75-2.322c.2-.449,1.179-.607,1.612-.366a3.293,3.293,0,0,1,1.808,3.514A5.255,5.255,0,0,1,316.727,374Z" transform="translate(-285.879 -366.424)" fill="#0c304e" fill-rule="evenodd"/>
      <path id="Path_2776" data-name="Path 2776" d="M340.264,400.92c.21.012.33.014.448.025,1.019.093,1.709.752,1.577,1.509a1.751,1.751,0,0,1-1.736,1.458,2.207,2.207,0,0,1-1.847-.851,1.268,1.268,0,0,1,.6-1.989C339.651,400.989,340.005,400.96,340.264,400.92Z" transform="translate(-286.158 -366.915)" fill="#0c304e" fill-rule="evenodd"/>
    </g>
    <g id="Group_2502" data-name="Group 2502" transform="translate(690.557 378.268)">
      <path id="Path_2777" data-name="Path 2777" d="M710.207,405.781a22.872,22.872,0,0,1-7.878,8.116c-.768-.427-.53-.97-.229-1.353,1.481-1.892,3.012-3.748,4.53-5.612.4-.491.82-.965,1.269-1.492a16.633,16.633,0,0,0-7.023-1.4,30.306,30.306,0,0,1-3.6-.077,2.879,2.879,0,0,1-1.369-.733,1.459,1.459,0,0,1,.181-2.383,4.315,4.315,0,0,1,1.865-.676c2.966.091,5.762-1.242,8.75-.934a7.923,7.923,0,0,0,2.069-.4c-2.1-3.786-6.123-6.034-6.616-10.316a1,1,0,0,1,1.5-.418,6.681,6.681,0,0,1,2.661,2.346,21.582,21.582,0,0,0,2.757,3.438c.221.253.655.326,1.255.606a10.734,10.734,0,0,0,.273-1.6c.024-2.944.065-5.888,0-8.829a8.084,8.084,0,0,1,1.647-4.847,1.429,1.429,0,0,1,2.116-.033,8.29,8.29,0,0,1,1.108,2.109,13.983,13.983,0,0,1,.446,2.757c.269,2.881.5,5.766.788,9.123.714-.666,1.172-.936,1.4-1.334,1.014-1.789,3.021-2.048,4.585-2.96.37-.217,1.3.172,1.756.543.608.494.351,1.29-.065,1.809-1.676,2.078-3.416,4.107-5.134,6.153l-1.112,1.33c1.272.586,2.338.193,3.332.34,1.05.155,2.107.295,3.153.481a21.34,21.34,0,0,1,3.142.661c.981.332,2.1.6,2.6,1.968-3.293,2.149-7.027,2.029-10.646,1.975a1.577,1.577,0,0,0,.383,1.935,32.051,32.051,0,0,1,3.957,6.493,10.051,10.051,0,0,1,.5,1.5c-2.141-.237-3.35-1.039-6.95-4.558-.182.349-.5.664-.47.944.292,2.906-.765,5.716-.441,8.669a25.213,25.213,0,0,1-.57,6.753,4.174,4.174,0,0,1-2.829,3.289c-.722-2.589-1.508-4.919-1.35-7.552a39.235,39.235,0,0,0-.581-5.927,29.54,29.54,0,0,1-.135-5.965A4.941,4.941,0,0,0,710.207,405.781Z" transform="translate(-695.37 -378.735)" fill="#0c304e" fill-rule="evenodd"/>
    </g>
  </g>
</svg>
