<?xml version="1.0" encoding="utf-8"?>
<!-- Generator: Adobe Illustrator 22.0.1, SVG Export Plug-In . SVG Version: 6.00 Build 0)  -->
<svg version="1.1" id="圖層_1" xmlns="http://www.w3.org/2000/svg" xmlns:xlink="http://www.w3.org/1999/xlink" x="0px" y="0px"
	 viewBox="0 0 548 64" style="enable-background:new 0 0 548 64;" xml:space="preserve">
<style type="text/css">
	.st0{fill:#0E3150;}
	.st1{enable-background:new    ;}
</style>
<g id="_">
	<path class="st0" d="M18,49c-1.1,0-2-0.9-2-2c0-9.6-4.4-14-14-14c-1.1,0-2-0.9-2-2s0.9-2,2-2c9.6,0,14-4.4,14-14c0-1.1,0.9-2,2-2
		s2,0.9,2,2c0,9.6,4.4,14,14,14c1.1,0,2,0.9,2,2s-0.9,2-2,2c-9.6,0-14,4.4-14,14C20,48.1,19.1,49,18,49z M11.8,31
		c2.7,1.4,4.8,3.5,6.2,6.2c1.4-2.7,3.4-4.8,6.2-6.2c-2.7-1.4-4.8-3.4-6.2-6.2C16.6,27.6,14.6,29.6,11.8,31z"/>
</g>
<g id="_2">
	<path class="st0" d="M530,49c-1.1,0-2-0.9-2-2c0-9.6-4.4-14-14-14c-1.1,0-2-0.9-2-2s0.9-2,2-2c9.6,0,14-4.4,14-14c0-1.1,0.9-2,2-2
		s2,0.9,2,2c0,9.6,4.4,14,14,14c1.1,0,2,0.9,2,2s-0.9,2-2,2c-9.6,0-14,4.4-14,14C532,48.1,531.1,49,530,49z M523.8,31
		c2.7,1.4,4.8,3.5,6.2,6.2c1.4-2.7,3.5-4.8,6.2-6.2c-2.7-1.4-4.8-3.4-6.2-6.2C528.6,27.6,526.5,29.6,523.8,31z"/>
</g>
<g class="st1">
	<path class="st0" d="M57.5,54.4l-1.2-0.6c-0.8-1.9-1.1-4-1.1-6.3s-0.2-15.6-0.6-40C55,6,55.8,5.3,57,5.5l21.1,0.2l1.2,0.6
		c0.5,0.6,0.7,1.3,0.6,2.2l-0.6,1.2c-0.6,0.4-1.2,0.7-1.9,0.8l-17.7-0.2v12.8c6.4,0.2,10.3,0.2,11.8,0.2s2.9,0.2,4.1,0.8
		c0.5,0.6,0.7,1.3,0.6,2.2l-0.6,1.2c-0.8,0.5-1.6,0.8-2.5,0.8l-13.4-0.4l0.8,24.4l-0.6,1.2C59.2,54.2,58.4,54.5,57.5,54.4z"/>
	<path class="st0" d="M97.6,23.9c-1.3-0.4-2.5-1.2-3.4-2.4s-1.7-2.3-2.4-3.5s-1.1-2.1-1.2-2.8c-0.1-0.7,0.3-1.5,1.1-2.2
		c0.8-0.8,1.8-0.9,3-0.4s2.3,1.4,3.2,2.9c1.1-1.9,2.4-2.7,3.9-2.6c1.5,0.2,2.4,0.6,2.9,1.2c0.4,0.6,0.5,1.4,0.2,2.3
		c-0.3,0.9-0.9,1.8-1.6,2.7c-0.7,0.9-1.6,1.8-2.8,2.9C99.4,23,98.5,23.7,97.6,23.9z M99.1,53.9l-1.3-0.6c-0.6-3.8-1-7.6-1.2-11.4
		c-0.2-3.8-0.4-7.7-0.4-11.5c0.1-0.7,0.3-1.2,0.8-1.8c0.6-0.5,1.4-0.7,2.3-0.6l1.2,0.6c0.4,3.8,0.8,7.7,1,11.6
		c0.2,3.9,0.4,7.9,0.5,11.8l-0.6,1.2C100.7,53.8,100,54,99.1,53.9z"/>
	<path class="st0" d="M125,54.6l-1.2-0.6c-1.1-4.5-1.8-9.2-2.1-13.9c-0.3-4.8-0.7-9.5-1.1-14.1c0.1-0.7,0.3-1.2,0.8-1.8
		c0.6-0.5,1.3-0.7,2.2-0.6l1.2,0.6c0.5,1.9,0.8,3.9,0.9,5.9c0.1,2,0.3,4.1,0.4,6.1c0.8-1.3,1.8-2.5,2.9-3.6c1.1-1,2.3-1.8,3.6-2.4
		c1.3-0.5,2.6-0.8,4-0.9c1.4,0,2.8-0.1,4.2-0.2l1.2,0.6c0.5,0.6,0.7,1.3,0.6,2.2l-0.6,1.2c-1.5,0.2-3.2,0.4-5.1,0.6
		c-1.9,0.2-3.4,1.1-4.7,2.7c-1.3,1.6-2.2,3.1-2.9,4.5s-1.1,2.9-1.4,4.3c-0.2,1.5-0.3,3.9-0.1,7.4l-0.6,1.2
		C126.7,54.5,125.9,54.7,125,54.6z"/>
	<path class="st0" d="M163.1,54.9c-1.5-0.2-2.9-0.7-4.3-1.3s-2.8-1.8-4.3-3.5s-2.5-4-3.1-6.7c-0.6-2.8-0.8-5.3-0.8-7.6
		c0.1-2.3,0.4-4.2,0.8-5.8c0.5-1.6,1.3-3,2.5-4.3s2.6-2.3,4.2-3.1c1.6-0.8,3.2-1,5-0.9c1.7,0.2,3.2,0.5,4.4,0.9
		c1.2,0.5,2.7,1.7,4.5,3.8c1.8,2,2.9,4.3,3.2,6.9c0.4,2.5,0.6,4.3,0.6,5.4c0,1-0.3,1.7-0.9,1.8c-0.6,0.2-6.9,0.4-19,0.7
		c0.2,1.3,0.6,2.5,1,3.6s1.1,2,1.9,2.8c0.9,0.8,1.8,1.4,2.8,1.8c1,0.4,2.2,0.6,3.5,0.5s2.6-0.5,3.8-1.3s2.4-1.3,3.8-1.7l1.2,0.6
		c0.5,0.7,0.7,1.5,0.6,2.4l-0.6,1.2c-1.9,1.5-3.7,2.5-5.4,2.9C166.9,54.7,165.1,54.9,163.1,54.9z M170.8,35.7
		c-0.1-1.7-0.3-3.1-0.7-4.2c-0.4-1.1-1-2.1-1.9-2.9c-0.9-0.8-1.9-1.4-3.2-1.8s-2.5-0.4-3.7-0.2s-2.3,0.9-3.2,1.8c-0.9,1-1.6,2-2,3.2
		s-0.7,2.7-0.8,4.6L170.8,35.7z"/>
	<path class="st0" d="M186.4,54.4l-1.2-0.6c-0.7-1.8-1-3.8-1-6s-0.3-14.8-0.9-37.7c0.1-0.7,0.3-1.2,0.8-1.8c0.6-0.5,1.3-0.7,2.2-0.6
		l1.2,0.6l0.6,1.2l0.2,16.6c1.5-0.5,2.9-0.8,4.3-0.9s2.7-0.1,4.1,0c1.4,0.1,2.5,0.5,3.5,1.1s2.1,1.5,3.4,2.8s2.1,2.5,2.4,3.9
		c0.4,1.3,0.7,2.9,0.9,4.7s0.2,3.7-0.1,5.8s-1.3,4.1-3.1,5.9s-3.7,2.9-5.7,3.4c-2.1,0.5-4.3,0.6-6.6,0.4l-2.4-0.5
		c0,0.5-0.2,0.9-0.5,1.2C188,54.2,187.3,54.5,186.4,54.4z M199.6,46.8c1.5-1.5,2.4-3,2.6-4.5c0.2-1.5,0.2-3.2,0-5s-0.7-3.2-1.3-4.1
		c-0.6-0.9-1.6-1.8-3-2.5c-1.4-0.8-2.8-1-4.3-0.8s-3.1,0.8-4.8,1.6l0.2,15.8c1,0.4,2.1,0.7,3.2,0.8c1.2,0.1,2.5,0,3.9-0.3
		C197.6,47.5,198.8,47.1,199.6,46.8z"/>
	<path class="st0" d="M237.6,55.1c-0.7-0.1-1.2-0.3-1.8-0.8l-0.9-1.4c-1.4,0.7-2.8,1.2-4.1,1.5s-2.7,0.5-4.3,0.4
		c-1.6,0-3.1-0.4-4.5-1.1c-1.4-0.7-2.7-1.6-3.9-2.8c-1.2-1.1-2-2.5-2.4-4.1s-0.5-3.2-0.3-4.8s0.5-3.1,1.1-4.4
		c0.5-1.3,1.4-2.5,2.5-3.6s2.5-1.9,4-2.3c1.5-0.5,3.1-0.6,4.6-0.4c1.5,0.2,2.8,0.5,3.9,0.9c0-1.6-0.6-2.8-1.7-3.6
		c-1.1-0.8-2.3-1.4-3.7-1.8c-1.3-0.4-2.6-0.5-3.8-0.1c-1.2,0.3-2.4,0.5-3.5,0.6l-1.5-0.8c-0.5-0.6-0.7-1.3-0.6-2.2l0.8-1.4
		c1.2-0.8,2.5-1.2,3.9-1.3c1.5-0.1,2.9-0.1,4.3,0.2s3.2,0.9,5.4,2s3.7,2.7,4.6,4.8c0.9,2.1,1.4,5.6,1.4,10.4c0,4.8,1,9.4,2.8,13.8
		l-0.6,1.2C238.9,54.8,238.2,55,237.6,55.1z M231.4,49.1l1.8-1.5c-0.2-1.5-0.4-2.9-0.5-4.1c-0.1-1.2-0.2-2.4-0.2-3.7
		c-1.8-2.2-3.7-3.3-5.8-3.2c-2,0.1-3.5,0.5-4.4,1.4s-1.4,1.9-1.7,3.1c-0.2,1.2-0.3,2.4-0.2,3.6c0.1,1.2,0.6,2.1,1.4,2.9
		c0.8,0.8,1.8,1.4,2.9,1.9c1.2,0.5,2.4,0.6,3.6,0.4C229.5,49.8,230.6,49.5,231.4,49.1z"/>
	<path class="st0" d="M257,55.2c-1.1-0.2-2.1-0.5-3.1-1.1S252,53,251,52.6c-0.5-0.7-0.8-1.4-0.9-2.2c0.1-0.7,0.3-1.3,0.8-1.8
		c0.6-0.5,1.3-0.7,2.2-0.6c1.1,0.6,2.1,1.2,3.1,1.8s2.3,0.8,4,0.6c1.6-0.3,3-0.9,4-1.8c1-0.9,1.4-1.9,1.1-2.9
		c-0.2-1-1.1-1.8-2.7-2.1c-1.5-0.4-3.4-0.9-5.5-1.5s-3.8-1.6-5.1-2.9c-1.3-1.3-2.2-2.6-2.6-3.9c-0.5-1.3-0.6-2.6-0.5-3.9
		c0.1-1.3,0.5-2.4,1-3.4s1.5-2.1,2.8-3.4c1.3-1.2,2.7-2.1,4.2-2.7c1.5-0.5,3-0.7,4.6-0.4c1.6,0.2,3,0.9,4.2,2s1.8,2.2,1.6,3.2
		l-0.6,1.2c-0.6,0.5-1.3,0.7-2.2,0.6c-2.1-1.6-3.8-2.3-5-2.1s-2.2,0.7-3.2,1.4c-0.9,0.8-1.7,1.9-2.2,3.3c-0.5,1.4-0.3,2.7,0.6,3.7
		c0.9,1,1.8,1.7,2.8,2.2s2.5,0.9,4.7,1.2c2.1,0.3,4,1.1,5.5,2.3s2.4,2.5,2.6,3.9s0.2,2.7-0.1,4.1c-0.3,1.4-1.1,2.6-2.3,3.8
		s-2.8,2-4.8,2.4C261.1,55.1,259.1,55.3,257,55.2z"/>
	<path class="st0" d="M291.1,54.9c-1.5-0.2-2.9-0.7-4.3-1.3s-2.8-1.8-4.3-3.5s-2.5-4-3.1-6.7c-0.6-2.8-0.8-5.3-0.8-7.6
		c0.1-2.3,0.4-4.2,0.8-5.8c0.5-1.6,1.3-3,2.5-4.3s2.6-2.3,4.2-3.1c1.6-0.8,3.2-1,5-0.9c1.7,0.2,3.2,0.5,4.4,0.9
		c1.2,0.5,2.7,1.7,4.5,3.8c1.8,2,2.9,4.3,3.2,6.9c0.4,2.5,0.6,4.3,0.6,5.4c0,1-0.3,1.7-0.9,1.8c-0.6,0.2-6.9,0.4-19,0.7
		c0.2,1.3,0.6,2.5,1,3.6s1.1,2,1.9,2.8c0.9,0.8,1.8,1.4,2.8,1.8c1,0.4,2.2,0.6,3.5,0.5s2.6-0.5,3.8-1.3c1.2-0.8,2.4-1.3,3.8-1.7
		l1.2,0.6c0.5,0.7,0.7,1.5,0.6,2.4l-0.6,1.2c-1.9,1.5-3.7,2.5-5.4,2.9C294.9,54.7,293.1,54.9,291.1,54.9z M298.8,35.7
		c-0.1-1.7-0.3-3.1-0.7-4.2c-0.4-1.1-1-2.1-1.9-2.9c-0.9-0.8-1.9-1.4-3.2-1.8s-2.5-0.4-3.7-0.2s-2.3,0.9-3.2,1.8c-0.9,1-1.6,2-2,3.2
		s-0.7,2.7-0.8,4.6L298.8,35.7z"/>
	<path class="st0" d="M319.6,31.1c-1.5,0.2-2.4-0.2-2.5-1.2s-0.3-7.1-0.6-18.2c-0.4-1.2,0.1-1.9,1.5-2.3c1.8-0.7,3.8-1.7,6.2-2.9
		c2.3-1.2,4.7-2,7.3-2.4l1.2,0.8c0.5,0.7,0.8,1.5,0.6,2.4l-0.7,1.2c-2,0.5-3.8,1.2-5.6,2.1c-1.8,0.9-3.6,1.8-5.4,2.6l0.5,12.4
		l11.2-2.1l-2.4-3.4c-0.5-0.7-0.6-1.5-0.5-2.4l0.8-1.3c0.7-0.5,1.5-0.7,2.5-0.4l1.2,0.7c1.3,2,2.5,4,3.8,6c1.2,2,2,4.1,2.5,6.3
		l-0.7,1.2c-0.7,0.5-1.5,0.6-2.4,0.5l-1.2-0.8l-1-2.1L319.6,31.1z M326.8,59.2c-2.3,0.1-3.6-0.4-3.7-1.7s-0.5-8.4-1.2-21.5
		c-0.3-1.9,0.2-2.9,1.6-3.1c1.4-0.2,12.7-0.3,34-0.3c1.1,0.2,1.8,0.8,1.9,1.9c-0.5,13.3-0.8,20.6-1,22.1c-0.1,1.4-1.4,2-3.7,1.8
		L326.8,59.2z M337.6,43.1l-0.4-5.2L326.8,38l0.2,5L337.6,43.1z M338.1,53.8l-0.4-5.8l-10.2,0.1l0.2,6L338.1,53.8z M354.4,42.9v-5.4
		H342l0.4,5.4H354.4z M358.8,29.7l-4.9-3.9c-0.5-0.6-0.7-1.3-0.6-2.2l0.6-1.2c0.6-0.5,1.4-0.7,2.3-0.6c0.9,0.4,1.8,1,2.5,1.6
		c0.7-1.8,1.1-3.7,1.3-5.7c0.2-2,0.4-4,0.4-6.1h-7.9c-0.6,2.6-1.2,5.1-1.9,7.7c-0.7,2.5-1.8,4.9-3.2,7c-0.7,0.6-1.5,0.8-2.4,0.8
		l-1.2-0.6c-0.5-0.6-0.7-1.3-0.6-2.2c1.2-1.8,2.1-3.8,2.8-5.9c0.7-2.1,1.2-4.2,1.6-6.4c-1.7,0.2-3.2,0-4.5-0.8
		c-0.5-0.6-0.7-1.3-0.6-2.2l0.6-1.2c1.3-0.5,2.8-0.7,4.3-0.7s7,0,16.4-0.2c1.8,0.2,2.5,1.4,1.9,3.6c-0.2,3.2-0.6,6.3-1,9.5
		c-0.4,3.1-1.5,6-3.2,8.6C360.4,29.9,359.6,30.3,358.8,29.7z M353.7,53.4l0.4-5.6h-11.5l0.2,5.8L353.7,53.4z"/>
	<path class="st0" d="M381.2,20.2c-0.7-0.1-1.2-0.3-1.8-0.8c-0.5-0.6-0.7-1.4-0.6-2.3l0.6-1.2c1.8-0.8,3.8-1.2,6-1.1l37.6-0.1
		c1.1,0,2.1,0.3,3,0.9c0.5,0.6,0.7,1.4,0.6,2.3l-0.6,1.2c-0.7,0.5-1.5,0.8-2.4,0.8L381.2,20.2z M417.4,59.6l-28.2-0.4
		c-1.3-0.2-2.1-0.9-2.3-2.3c-0.2-1.4-0.4-3.2-0.4-5.5s-0.2-4.8-0.6-7.5c0.1-2.2,0.8-3.3,1.9-3.4c1.2-0.1,6.3-0.1,15.3-0.1
		s14.4,0.2,16.2,0.6c1.8,0.4,2.7,1.1,2.8,2.1c-0.1,8.5-0.3,13.4-0.6,14.8C421.3,59.3,419.9,59.9,417.4,59.6z M416.9,54.6l0.2-8.8
		l-26.2-0.4l0.8,8.9L416.9,54.6z M411.4,10.9l-17.9-0.2l-1.6-0.8c-0.5-0.6-0.7-1.3-0.6-2.2l0.6-1.2c1.2-0.8,2.7-1.1,4.2-1
		c7.4,0.2,11.9,0.4,13.3,0.4c1.5,0,2.9,0.2,4.2,0.8c0.6,0.7,0.8,1.5,0.6,2.5l-0.6,1.2C413.1,10.8,412.4,11,411.4,10.9z M413.4,28.3
		l-19.5-0.4c-0.7-0.1-1.2-0.3-1.8-0.8c-0.5-0.6-0.7-1.3-0.6-2.2l0.6-1.2l1.2-0.6c10.4,0.2,16.6,0.2,18.4,0.2s3.6,0.2,5.2,0.8
		c0.5,0.6,0.7,1.3,0.6,2.2l-0.6,1.2C416.1,28.2,414.9,28.5,413.4,28.3z M394.2,36.8c-0.7-0.1-1.2-0.3-1.8-0.8
		c-0.5-0.6-0.7-1.3-0.6-2.2l0.6-1.2l1.2-0.6l21.2-0.4c0.7,0.1,1.2,0.3,1.8,0.8c0.5,0.6,0.7,1.3,0.6,2.2l-0.6,1.2
		c-0.7,0.4-1.4,0.7-2.1,0.8L394.2,36.8z"/>
	<path class="st0" d="M443.5,41c-2,0.1-3.1-0.3-3.2-1.3s-0.3-9-0.6-24.1c0-1.8,0.4-2.8,1-3.1s6.3-0.1,17,0.5c1.6,0,2.4,0.5,2.5,1.7
		s0.1,5.3,0.1,12.5s-0.1,11.2-0.2,12.2s-1.1,1.4-2.9,1.2L443.5,41z M455.1,35.8V18l-10.2-0.2v18H455.1z M477.7,58.8
		c-2.1,0-4.1-0.2-5.9-0.6c-1.9-0.4-3.7-1.5-5.4-3.2c-1.7-1.8-2.8-4-3.1-6.7c-0.4-2.7-0.5-9.6-0.4-20.7C463,16.5,463,10.4,463,9.2
		s0.8-1.8,2.4-1.8h24.4c1.8-0.3,2.8,0.4,3.1,2l0.4,20.4c0.1,1.5-0.2,2.3-0.9,2.3c-0.7,0-8.9,0.2-24.7,0.4c0.1,6.9,0.2,11.5,0.2,13.7
		c0.1,2.2,0.9,4,2.4,5.3s3,2.1,4.6,2.2c1.6,0.1,3.1,0.1,4.7,0c1.5-0.1,3.1-0.2,4.7-0.2s3.1-0.1,4.7-0.2c-0.3-1.4-0.5-2.7-0.4-3.9
		l0.6-1.2c0.6-0.5,1.3-0.8,2.2-0.7l1.2,0.7c0.5,1.2,0.8,2.4,1,3.6c0.2,1.2,0.3,2.5,0.4,3.8s-0.6,2.1-2.1,2.4
		c-1.5,0.3-3.6,0.4-6.3,0.4C483.1,58.4,480.4,58.5,477.7,58.8z M475.7,27.4l-0.2-15.3h-7.4l-0.2,15.3H475.7z M488.2,27.3L488,12
		h-7.7l0.2,15.4L488.2,27.3z"/>
</g>
</svg>
